G04 #@! TF.FileFunction,Soldermask,Top*
%FSLAX46Y46*%
G04 Gerber Fmt 4.6, Leading zero omitted, Abs format (unit mm)*
G04 Created by KiCad (PCBNEW 4.0.7) date 07/18/19 16:41:38*
%MOMM*%
%LPD*%
G01*
G04 APERTURE LIST*
%ADD10C,0.100000*%
%ADD11O,2.900000X1.400000*%
%ADD12C,2.900000*%
%ADD13C,6.400000*%
%ADD14R,1.150000X1.200000*%
%ADD15R,1.900000X1.950000*%
%ADD16R,1.675000X1.950000*%
%ADD17C,1.950000*%
%ADD18C,1.650000*%
%ADD19R,0.800000X1.750000*%
%ADD20R,1.000000X1.900000*%
%ADD21R,1.460000X1.050000*%
G04 APERTURE END LIST*
D10*
D11*
X137030000Y-106045000D03*
X137030000Y-103505000D03*
X137030000Y-100965000D03*
X137030000Y-98425000D03*
X137030000Y-95885000D03*
X137030000Y-93345000D03*
X152530000Y-93345000D03*
X152530000Y-95885000D03*
X152530000Y-98425000D03*
X152530000Y-100965000D03*
X152530000Y-103505000D03*
X152530000Y-106045000D03*
D12*
X145380000Y-100825000D03*
D13*
X163830000Y-119380000D03*
X125730000Y-119380000D03*
X125730000Y-81280000D03*
D14*
X144780000Y-118225000D03*
X144780000Y-116725000D03*
X139700000Y-116725000D03*
X139700000Y-118225000D03*
X142240000Y-116725000D03*
X142240000Y-118225000D03*
X158369000Y-119265000D03*
X158369000Y-120765000D03*
D15*
X134908800Y-123012200D03*
D16*
X136846300Y-123012200D03*
D17*
X137483800Y-123012200D03*
X130333800Y-123012200D03*
D18*
X131408800Y-120312200D03*
D19*
X132608800Y-120312200D03*
X133258800Y-120312200D03*
X135208800Y-120312200D03*
X134558800Y-120312200D03*
X133908800Y-120312200D03*
D18*
X136408800Y-120312200D03*
D16*
X130971300Y-123012200D03*
D15*
X132908800Y-123012200D03*
D20*
X156083000Y-117061000D03*
X154813000Y-117061000D03*
X153543000Y-117061000D03*
X152273000Y-117061000D03*
X151003000Y-117061000D03*
X149733000Y-117061000D03*
X148463000Y-117061000D03*
X147193000Y-117061000D03*
X147193000Y-122461000D03*
X148463000Y-122461000D03*
X149733000Y-122461000D03*
X151003000Y-122461000D03*
X152273000Y-122461000D03*
X153543000Y-122461000D03*
X154813000Y-122461000D03*
X156083000Y-122461000D03*
D21*
X141140000Y-120589000D03*
X141140000Y-121539000D03*
X141140000Y-122489000D03*
X143340000Y-122489000D03*
X143340000Y-120589000D03*
D13*
X163830000Y-81280000D03*
M02*
