G04 #@! TF.FileFunction,Legend,Top*
%FSLAX46Y46*%
G04 Gerber Fmt 4.6, Leading zero omitted, Abs format (unit mm)*
G04 Created by KiCad (PCBNEW 4.0.7) date 07/18/19 16:41:38*
%MOMM*%
%LPD*%
G01*
G04 APERTURE LIST*
%ADD10C,0.100000*%
%ADD11C,0.300000*%
%ADD12C,0.150000*%
%ADD13C,0.120000*%
G04 APERTURE END LIST*
D10*
D11*
X155067286Y-80458571D02*
X155567286Y-81958571D01*
X156067286Y-80458571D01*
X157353000Y-81958571D02*
X156495857Y-81958571D01*
X156924429Y-81958571D02*
X156924429Y-80458571D01*
X156781572Y-80672857D01*
X156638714Y-80815714D01*
X156495857Y-80887143D01*
X157995857Y-81815714D02*
X158067285Y-81887143D01*
X157995857Y-81958571D01*
X157924428Y-81887143D01*
X157995857Y-81815714D01*
X157995857Y-81958571D01*
X158995857Y-80458571D02*
X159138714Y-80458571D01*
X159281571Y-80530000D01*
X159353000Y-80601429D01*
X159424429Y-80744286D01*
X159495857Y-81030000D01*
X159495857Y-81387143D01*
X159424429Y-81672857D01*
X159353000Y-81815714D01*
X159281571Y-81887143D01*
X159138714Y-81958571D01*
X158995857Y-81958571D01*
X158853000Y-81887143D01*
X158781571Y-81815714D01*
X158710143Y-81672857D01*
X158638714Y-81387143D01*
X158638714Y-81030000D01*
X158710143Y-80744286D01*
X158781571Y-80601429D01*
X158853000Y-80530000D01*
X158995857Y-80458571D01*
X130402287Y-81958571D02*
X130402287Y-80458571D01*
X130973715Y-80458571D01*
X131116573Y-80530000D01*
X131188001Y-80601429D01*
X131259430Y-80744286D01*
X131259430Y-80958571D01*
X131188001Y-81101429D01*
X131116573Y-81172857D01*
X130973715Y-81244286D01*
X130402287Y-81244286D01*
X132973715Y-81887143D02*
X133188001Y-81958571D01*
X133545144Y-81958571D01*
X133688001Y-81887143D01*
X133759430Y-81815714D01*
X133830858Y-81672857D01*
X133830858Y-81530000D01*
X133759430Y-81387143D01*
X133688001Y-81315714D01*
X133545144Y-81244286D01*
X133259430Y-81172857D01*
X133116572Y-81101429D01*
X133045144Y-81030000D01*
X132973715Y-80887143D01*
X132973715Y-80744286D01*
X133045144Y-80601429D01*
X133116572Y-80530000D01*
X133259430Y-80458571D01*
X133616572Y-80458571D01*
X133830858Y-80530000D01*
X134259429Y-80958571D02*
X134830858Y-80958571D01*
X134473715Y-80458571D02*
X134473715Y-81744286D01*
X134545143Y-81887143D01*
X134688001Y-81958571D01*
X134830858Y-81958571D01*
X135330858Y-81958571D02*
X135330858Y-80958571D01*
X135330858Y-80458571D02*
X135259429Y-80530000D01*
X135330858Y-80601429D01*
X135402286Y-80530000D01*
X135330858Y-80458571D01*
X135330858Y-80601429D01*
X136045144Y-80958571D02*
X136045144Y-81958571D01*
X136045144Y-81101429D02*
X136116572Y-81030000D01*
X136259430Y-80958571D01*
X136473715Y-80958571D01*
X136616572Y-81030000D01*
X136688001Y-81172857D01*
X136688001Y-81958571D01*
X137330858Y-81887143D02*
X137473715Y-81958571D01*
X137759430Y-81958571D01*
X137902287Y-81887143D01*
X137973715Y-81744286D01*
X137973715Y-81672857D01*
X137902287Y-81530000D01*
X137759430Y-81458571D01*
X137545144Y-81458571D01*
X137402287Y-81387143D01*
X137330858Y-81244286D01*
X137330858Y-81172857D01*
X137402287Y-81030000D01*
X137545144Y-80958571D01*
X137759430Y-80958571D01*
X137902287Y-81030000D01*
X138830859Y-81958571D02*
X138688001Y-81887143D01*
X138616573Y-81815714D01*
X138545144Y-81672857D01*
X138545144Y-81244286D01*
X138616573Y-81101429D01*
X138688001Y-81030000D01*
X138830859Y-80958571D01*
X139045144Y-80958571D01*
X139188001Y-81030000D01*
X139259430Y-81101429D01*
X139330859Y-81244286D01*
X139330859Y-81672857D01*
X139259430Y-81815714D01*
X139188001Y-81887143D01*
X139045144Y-81958571D01*
X138830859Y-81958571D01*
X139973716Y-80958571D02*
X139973716Y-81958571D01*
X139973716Y-81101429D02*
X140045144Y-81030000D01*
X140188002Y-80958571D01*
X140402287Y-80958571D01*
X140545144Y-81030000D01*
X140616573Y-81172857D01*
X140616573Y-81958571D01*
X142402287Y-80601429D02*
X142473716Y-80530000D01*
X142616573Y-80458571D01*
X142973716Y-80458571D01*
X143116573Y-80530000D01*
X143188002Y-80601429D01*
X143259430Y-80744286D01*
X143259430Y-80887143D01*
X143188002Y-81101429D01*
X142330859Y-81958571D01*
X143259430Y-81958571D01*
X144188001Y-80458571D02*
X144330858Y-80458571D01*
X144473715Y-80530000D01*
X144545144Y-80601429D01*
X144616573Y-80744286D01*
X144688001Y-81030000D01*
X144688001Y-81387143D01*
X144616573Y-81672857D01*
X144545144Y-81815714D01*
X144473715Y-81887143D01*
X144330858Y-81958571D01*
X144188001Y-81958571D01*
X144045144Y-81887143D01*
X143973715Y-81815714D01*
X143902287Y-81672857D01*
X143830858Y-81387143D01*
X143830858Y-81030000D01*
X143902287Y-80744286D01*
X143973715Y-80601429D01*
X144045144Y-80530000D01*
X144188001Y-80458571D01*
X146116572Y-81958571D02*
X145259429Y-81958571D01*
X145688001Y-81958571D02*
X145688001Y-80458571D01*
X145545144Y-80672857D01*
X145402286Y-80815714D01*
X145259429Y-80887143D01*
X146830857Y-81958571D02*
X147116572Y-81958571D01*
X147259429Y-81887143D01*
X147330857Y-81815714D01*
X147473715Y-81601429D01*
X147545143Y-81315714D01*
X147545143Y-80744286D01*
X147473715Y-80601429D01*
X147402286Y-80530000D01*
X147259429Y-80458571D01*
X146973715Y-80458571D01*
X146830857Y-80530000D01*
X146759429Y-80601429D01*
X146688000Y-80744286D01*
X146688000Y-81101429D01*
X146759429Y-81244286D01*
X146830857Y-81315714D01*
X146973715Y-81387143D01*
X147259429Y-81387143D01*
X147402286Y-81315714D01*
X147473715Y-81244286D01*
X147545143Y-81101429D01*
X131030001Y-79418571D02*
X130315715Y-79418571D01*
X130315715Y-77918571D01*
X131744287Y-78561429D02*
X131601429Y-78490000D01*
X131530001Y-78418571D01*
X131458572Y-78275714D01*
X131458572Y-78204286D01*
X131530001Y-78061429D01*
X131601429Y-77990000D01*
X131744287Y-77918571D01*
X132030001Y-77918571D01*
X132172858Y-77990000D01*
X132244287Y-78061429D01*
X132315715Y-78204286D01*
X132315715Y-78275714D01*
X132244287Y-78418571D01*
X132172858Y-78490000D01*
X132030001Y-78561429D01*
X131744287Y-78561429D01*
X131601429Y-78632857D01*
X131530001Y-78704286D01*
X131458572Y-78847143D01*
X131458572Y-79132857D01*
X131530001Y-79275714D01*
X131601429Y-79347143D01*
X131744287Y-79418571D01*
X132030001Y-79418571D01*
X132172858Y-79347143D01*
X132244287Y-79275714D01*
X132315715Y-79132857D01*
X132315715Y-78847143D01*
X132244287Y-78704286D01*
X132172858Y-78632857D01*
X132030001Y-78561429D01*
X133244286Y-77918571D02*
X133387143Y-77918571D01*
X133530000Y-77990000D01*
X133601429Y-78061429D01*
X133672858Y-78204286D01*
X133744286Y-78490000D01*
X133744286Y-78847143D01*
X133672858Y-79132857D01*
X133601429Y-79275714D01*
X133530000Y-79347143D01*
X133387143Y-79418571D01*
X133244286Y-79418571D01*
X133101429Y-79347143D01*
X133030000Y-79275714D01*
X132958572Y-79132857D01*
X132887143Y-78847143D01*
X132887143Y-78490000D01*
X132958572Y-78204286D01*
X133030000Y-78061429D01*
X133101429Y-77990000D01*
X133244286Y-77918571D01*
X134387143Y-78847143D02*
X135530000Y-78847143D01*
X137101429Y-79418571D02*
X136601429Y-78704286D01*
X136244286Y-79418571D02*
X136244286Y-77918571D01*
X136815714Y-77918571D01*
X136958572Y-77990000D01*
X137030000Y-78061429D01*
X137101429Y-78204286D01*
X137101429Y-78418571D01*
X137030000Y-78561429D01*
X136958572Y-78632857D01*
X136815714Y-78704286D01*
X136244286Y-78704286D01*
X139672857Y-77990000D02*
X139530000Y-77918571D01*
X139315714Y-77918571D01*
X139101429Y-77990000D01*
X138958571Y-78132857D01*
X138887143Y-78275714D01*
X138815714Y-78561429D01*
X138815714Y-78775714D01*
X138887143Y-79061429D01*
X138958571Y-79204286D01*
X139101429Y-79347143D01*
X139315714Y-79418571D01*
X139458571Y-79418571D01*
X139672857Y-79347143D01*
X139744286Y-79275714D01*
X139744286Y-78775714D01*
X139458571Y-78775714D01*
X140387143Y-79418571D02*
X140387143Y-77918571D01*
X140958571Y-77918571D01*
X141101429Y-77990000D01*
X141172857Y-78061429D01*
X141244286Y-78204286D01*
X141244286Y-78418571D01*
X141172857Y-78561429D01*
X141101429Y-78632857D01*
X140958571Y-78704286D01*
X140387143Y-78704286D01*
X141815714Y-79347143D02*
X142030000Y-79418571D01*
X142387143Y-79418571D01*
X142530000Y-79347143D01*
X142601429Y-79275714D01*
X142672857Y-79132857D01*
X142672857Y-78990000D01*
X142601429Y-78847143D01*
X142530000Y-78775714D01*
X142387143Y-78704286D01*
X142101429Y-78632857D01*
X141958571Y-78561429D01*
X141887143Y-78490000D01*
X141815714Y-78347143D01*
X141815714Y-78204286D01*
X141887143Y-78061429D01*
X141958571Y-77990000D01*
X142101429Y-77918571D01*
X142458571Y-77918571D01*
X142672857Y-77990000D01*
X144458571Y-77918571D02*
X144458571Y-79132857D01*
X144529999Y-79275714D01*
X144601428Y-79347143D01*
X144744285Y-79418571D01*
X145029999Y-79418571D01*
X145172857Y-79347143D01*
X145244285Y-79275714D01*
X145315714Y-79132857D01*
X145315714Y-77918571D01*
X145958571Y-79347143D02*
X146172857Y-79418571D01*
X146530000Y-79418571D01*
X146672857Y-79347143D01*
X146744286Y-79275714D01*
X146815714Y-79132857D01*
X146815714Y-78990000D01*
X146744286Y-78847143D01*
X146672857Y-78775714D01*
X146530000Y-78704286D01*
X146244286Y-78632857D01*
X146101428Y-78561429D01*
X146030000Y-78490000D01*
X145958571Y-78347143D01*
X145958571Y-78204286D01*
X146030000Y-78061429D01*
X146101428Y-77990000D01*
X146244286Y-77918571D01*
X146601428Y-77918571D01*
X146815714Y-77990000D01*
X147958571Y-78632857D02*
X148172857Y-78704286D01*
X148244285Y-78775714D01*
X148315714Y-78918571D01*
X148315714Y-79132857D01*
X148244285Y-79275714D01*
X148172857Y-79347143D01*
X148029999Y-79418571D01*
X147458571Y-79418571D01*
X147458571Y-77918571D01*
X147958571Y-77918571D01*
X148101428Y-77990000D01*
X148172857Y-78061429D01*
X148244285Y-78204286D01*
X148244285Y-78347143D01*
X148172857Y-78490000D01*
X148101428Y-78561429D01*
X147958571Y-78632857D01*
X147458571Y-78632857D01*
X150601428Y-78632857D02*
X150815714Y-78704286D01*
X150887142Y-78775714D01*
X150958571Y-78918571D01*
X150958571Y-79132857D01*
X150887142Y-79275714D01*
X150815714Y-79347143D01*
X150672856Y-79418571D01*
X150101428Y-79418571D01*
X150101428Y-77918571D01*
X150601428Y-77918571D01*
X150744285Y-77990000D01*
X150815714Y-78061429D01*
X150887142Y-78204286D01*
X150887142Y-78347143D01*
X150815714Y-78490000D01*
X150744285Y-78561429D01*
X150601428Y-78632857D01*
X150101428Y-78632857D01*
X151601428Y-79418571D02*
X151601428Y-78418571D01*
X151601428Y-78704286D02*
X151672856Y-78561429D01*
X151744285Y-78490000D01*
X151887142Y-78418571D01*
X152029999Y-78418571D01*
X153101427Y-79347143D02*
X152958570Y-79418571D01*
X152672856Y-79418571D01*
X152529999Y-79347143D01*
X152458570Y-79204286D01*
X152458570Y-78632857D01*
X152529999Y-78490000D01*
X152672856Y-78418571D01*
X152958570Y-78418571D01*
X153101427Y-78490000D01*
X153172856Y-78632857D01*
X153172856Y-78775714D01*
X152458570Y-78918571D01*
X154458570Y-79418571D02*
X154458570Y-78632857D01*
X154387141Y-78490000D01*
X154244284Y-78418571D01*
X153958570Y-78418571D01*
X153815713Y-78490000D01*
X154458570Y-79347143D02*
X154315713Y-79418571D01*
X153958570Y-79418571D01*
X153815713Y-79347143D01*
X153744284Y-79204286D01*
X153744284Y-79061429D01*
X153815713Y-78918571D01*
X153958570Y-78847143D01*
X154315713Y-78847143D01*
X154458570Y-78775714D01*
X155172856Y-79418571D02*
X155172856Y-77918571D01*
X155315713Y-78847143D02*
X155744284Y-79418571D01*
X155744284Y-78418571D02*
X155172856Y-78990000D01*
X156601428Y-79418571D02*
X156458570Y-79347143D01*
X156387142Y-79275714D01*
X156315713Y-79132857D01*
X156315713Y-78704286D01*
X156387142Y-78561429D01*
X156458570Y-78490000D01*
X156601428Y-78418571D01*
X156815713Y-78418571D01*
X156958570Y-78490000D01*
X157029999Y-78561429D01*
X157101428Y-78704286D01*
X157101428Y-79132857D01*
X157029999Y-79275714D01*
X156958570Y-79347143D01*
X156815713Y-79418571D01*
X156601428Y-79418571D01*
X158387142Y-78418571D02*
X158387142Y-79418571D01*
X157744285Y-78418571D02*
X157744285Y-79204286D01*
X157815713Y-79347143D01*
X157958571Y-79418571D01*
X158172856Y-79418571D01*
X158315713Y-79347143D01*
X158387142Y-79275714D01*
X158887142Y-78418571D02*
X159458571Y-78418571D01*
X159101428Y-77918571D02*
X159101428Y-79204286D01*
X159172856Y-79347143D01*
X159315714Y-79418571D01*
X159458571Y-79418571D01*
D12*
X154813000Y-106426000D02*
X154940000Y-106553000D01*
X154940000Y-105537000D02*
X154432000Y-106045000D01*
X154432000Y-106045000D02*
X154813000Y-106426000D01*
X154813000Y-106426000D02*
X154813000Y-105664000D01*
X154813000Y-105664000D02*
X154813000Y-105791000D01*
X154813000Y-105791000D02*
X154559000Y-106045000D01*
X154559000Y-106045000D02*
X154813000Y-106299000D01*
X154305000Y-106045000D02*
X154940000Y-105410000D01*
X154940000Y-105410000D02*
X154940000Y-106680000D01*
X154940000Y-106680000D02*
X154305000Y-106045000D01*
X154305000Y-106045000D02*
X154940000Y-106045000D01*
D13*
X144180000Y-117825000D02*
X144180000Y-117125000D01*
X145380000Y-117125000D02*
X145380000Y-117825000D01*
X140300000Y-117125000D02*
X140300000Y-117825000D01*
X139100000Y-117825000D02*
X139100000Y-117125000D01*
X142840000Y-117125000D02*
X142840000Y-117825000D01*
X141640000Y-117825000D02*
X141640000Y-117125000D01*
X158969000Y-119665000D02*
X158969000Y-120365000D01*
X157769000Y-120365000D02*
X157769000Y-119665000D01*
D12*
X156713000Y-117686000D02*
X156688000Y-117686000D01*
X156713000Y-121836000D02*
X156608000Y-121836000D01*
X146563000Y-121836000D02*
X146668000Y-121836000D01*
X146563000Y-117686000D02*
X146668000Y-117686000D01*
X156713000Y-117686000D02*
X156713000Y-121836000D01*
X146563000Y-117686000D02*
X146563000Y-121836000D01*
X156688000Y-117686000D02*
X156688000Y-116311000D01*
D13*
X141340000Y-123149000D02*
X143140000Y-123149000D01*
X143140000Y-119929000D02*
X140690000Y-119929000D01*
D12*
X137033095Y-90257381D02*
X137033095Y-91066905D01*
X137080714Y-91162143D01*
X137128333Y-91209762D01*
X137223571Y-91257381D01*
X137414048Y-91257381D01*
X137509286Y-91209762D01*
X137556905Y-91162143D01*
X137604524Y-91066905D01*
X137604524Y-90257381D01*
X137985476Y-90257381D02*
X138604524Y-90257381D01*
X138271190Y-90638333D01*
X138414048Y-90638333D01*
X138509286Y-90685952D01*
X138556905Y-90733571D01*
X138604524Y-90828810D01*
X138604524Y-91066905D01*
X138556905Y-91162143D01*
X138509286Y-91209762D01*
X138414048Y-91257381D01*
X138128333Y-91257381D01*
X138033095Y-91209762D01*
X137985476Y-91162143D01*
X144613334Y-115546143D02*
X144565715Y-115593762D01*
X144422858Y-115641381D01*
X144327620Y-115641381D01*
X144184762Y-115593762D01*
X144089524Y-115498524D01*
X144041905Y-115403286D01*
X143994286Y-115212810D01*
X143994286Y-115069952D01*
X144041905Y-114879476D01*
X144089524Y-114784238D01*
X144184762Y-114689000D01*
X144327620Y-114641381D01*
X144422858Y-114641381D01*
X144565715Y-114689000D01*
X144613334Y-114736619D01*
X145565715Y-115641381D02*
X144994286Y-115641381D01*
X145280000Y-115641381D02*
X145280000Y-114641381D01*
X145184762Y-114784238D01*
X145089524Y-114879476D01*
X144994286Y-114927095D01*
X139533334Y-115546143D02*
X139485715Y-115593762D01*
X139342858Y-115641381D01*
X139247620Y-115641381D01*
X139104762Y-115593762D01*
X139009524Y-115498524D01*
X138961905Y-115403286D01*
X138914286Y-115212810D01*
X138914286Y-115069952D01*
X138961905Y-114879476D01*
X139009524Y-114784238D01*
X139104762Y-114689000D01*
X139247620Y-114641381D01*
X139342858Y-114641381D01*
X139485715Y-114689000D01*
X139533334Y-114736619D01*
X139914286Y-114736619D02*
X139961905Y-114689000D01*
X140057143Y-114641381D01*
X140295239Y-114641381D01*
X140390477Y-114689000D01*
X140438096Y-114736619D01*
X140485715Y-114831857D01*
X140485715Y-114927095D01*
X140438096Y-115069952D01*
X139866667Y-115641381D01*
X140485715Y-115641381D01*
X142073334Y-115546143D02*
X142025715Y-115593762D01*
X141882858Y-115641381D01*
X141787620Y-115641381D01*
X141644762Y-115593762D01*
X141549524Y-115498524D01*
X141501905Y-115403286D01*
X141454286Y-115212810D01*
X141454286Y-115069952D01*
X141501905Y-114879476D01*
X141549524Y-114784238D01*
X141644762Y-114689000D01*
X141787620Y-114641381D01*
X141882858Y-114641381D01*
X142025715Y-114689000D01*
X142073334Y-114736619D01*
X142406667Y-114641381D02*
X143025715Y-114641381D01*
X142692381Y-115022333D01*
X142835239Y-115022333D01*
X142930477Y-115069952D01*
X142978096Y-115117571D01*
X143025715Y-115212810D01*
X143025715Y-115450905D01*
X142978096Y-115546143D01*
X142930477Y-115593762D01*
X142835239Y-115641381D01*
X142549524Y-115641381D01*
X142454286Y-115593762D01*
X142406667Y-115546143D01*
X158202334Y-122658143D02*
X158154715Y-122705762D01*
X158011858Y-122753381D01*
X157916620Y-122753381D01*
X157773762Y-122705762D01*
X157678524Y-122610524D01*
X157630905Y-122515286D01*
X157583286Y-122324810D01*
X157583286Y-122181952D01*
X157630905Y-121991476D01*
X157678524Y-121896238D01*
X157773762Y-121801000D01*
X157916620Y-121753381D01*
X158011858Y-121753381D01*
X158154715Y-121801000D01*
X158202334Y-121848619D01*
X159059477Y-122086714D02*
X159059477Y-122753381D01*
X158821381Y-121705762D02*
X158583286Y-122420048D01*
X159202334Y-122420048D01*
X131111667Y-117943381D02*
X131111667Y-118657667D01*
X131064047Y-118800524D01*
X130968809Y-118895762D01*
X130825952Y-118943381D01*
X130730714Y-118943381D01*
X132111667Y-118943381D02*
X131540238Y-118943381D01*
X131825952Y-118943381D02*
X131825952Y-117943381D01*
X131730714Y-118086238D01*
X131635476Y-118181476D01*
X131540238Y-118229095D01*
X157226095Y-116292381D02*
X157226095Y-117101905D01*
X157273714Y-117197143D01*
X157321333Y-117244762D01*
X157416571Y-117292381D01*
X157607048Y-117292381D01*
X157702286Y-117244762D01*
X157749905Y-117197143D01*
X157797524Y-117101905D01*
X157797524Y-116292381D01*
X158797524Y-117292381D02*
X158226095Y-117292381D01*
X158511809Y-117292381D02*
X158511809Y-116292381D01*
X158416571Y-116435238D01*
X158321333Y-116530476D01*
X158226095Y-116578095D01*
X138430095Y-119975381D02*
X138430095Y-120784905D01*
X138477714Y-120880143D01*
X138525333Y-120927762D01*
X138620571Y-120975381D01*
X138811048Y-120975381D01*
X138906286Y-120927762D01*
X138953905Y-120880143D01*
X139001524Y-120784905D01*
X139001524Y-119975381D01*
X139430095Y-120070619D02*
X139477714Y-120023000D01*
X139572952Y-119975381D01*
X139811048Y-119975381D01*
X139906286Y-120023000D01*
X139953905Y-120070619D01*
X140001524Y-120165857D01*
X140001524Y-120261095D01*
X139953905Y-120403952D01*
X139382476Y-120975381D01*
X140001524Y-120975381D01*
M02*
