G04 #@! TF.FileFunction,Copper,L2,Bot,Signal*
%FSLAX46Y46*%
G04 Gerber Fmt 4.6, Leading zero omitted, Abs format (unit mm)*
G04 Created by KiCad (PCBNEW 4.0.7) date 07/18/19 16:41:38*
%MOMM*%
%LPD*%
G01*
G04 APERTURE LIST*
%ADD10C,0.100000*%
%ADD11C,6.000000*%
%ADD12R,0.750000X0.800000*%
%ADD13C,1.550000*%
%ADD14C,1.250000*%
%ADD15C,0.600000*%
%ADD16C,0.250000*%
%ADD17C,0.254000*%
G04 APERTURE END LIST*
D10*
D11*
X163830000Y-119380000D03*
X125730000Y-119380000D03*
X125730000Y-81280000D03*
D12*
X147955000Y-100445000D03*
X147955000Y-98945000D03*
X149860000Y-100445000D03*
X149860000Y-98945000D03*
X148590000Y-93865000D03*
X148590000Y-95365000D03*
D13*
X137483800Y-123012200D03*
X130333800Y-123012200D03*
D14*
X131408800Y-120312200D03*
X136408800Y-120312200D03*
D11*
X163830000Y-81280000D03*
D15*
X130810000Y-116205000D03*
X132080000Y-116205000D03*
X133350000Y-116205000D03*
X134620000Y-116205000D03*
X135890000Y-116205000D03*
X137160000Y-116205000D03*
X145415000Y-123063000D03*
X139573000Y-123190000D03*
X139573000Y-121920000D03*
X145415000Y-121920000D03*
X146939000Y-93853000D03*
X145796000Y-93853000D03*
X160020000Y-121285000D03*
X159639000Y-116840000D03*
X159639000Y-118110000D03*
X160020000Y-122555000D03*
X150876000Y-102235000D03*
X149987000Y-96139000D03*
X139192000Y-100457000D03*
X153352500Y-119380000D03*
X149987000Y-97409000D03*
X148463000Y-119253000D03*
X133096000Y-118491000D03*
X151003000Y-119253000D03*
X133985000Y-117983000D03*
X155892500Y-118872000D03*
X151892000Y-107378500D03*
X150558500Y-103949500D03*
X154051000Y-118872000D03*
X151193500Y-94615000D03*
X154305000Y-120713500D03*
D16*
X145796000Y-93853000D02*
X146939000Y-93853000D01*
X146951000Y-93865000D02*
X146939000Y-93853000D01*
X146951000Y-93865000D02*
X148590000Y-93865000D01*
X148907500Y-98945000D02*
X148907500Y-96710500D01*
X148590000Y-96393000D02*
X148590000Y-95365000D01*
X148907500Y-96710500D02*
X148590000Y-96393000D01*
X148590000Y-95365000D02*
X149213000Y-95365000D01*
X149213000Y-95365000D02*
X149987000Y-96139000D01*
X139192000Y-100457000D02*
X140462000Y-99187000D01*
X140462000Y-99187000D02*
X140462000Y-97536000D01*
X140462000Y-97536000D02*
X142633000Y-95365000D01*
X142633000Y-95365000D02*
X148590000Y-95365000D01*
X148907500Y-114935000D02*
X148907500Y-98945000D01*
X153352500Y-119380000D02*
X148907500Y-114935000D01*
X149860000Y-98945000D02*
X148907500Y-98945000D01*
X148907500Y-98945000D02*
X147955000Y-98945000D01*
X149860000Y-98171000D02*
X149860000Y-98945000D01*
X149987000Y-98044000D02*
X149860000Y-98171000D01*
X149987000Y-97409000D02*
X149987000Y-98044000D01*
X133985000Y-119253000D02*
X148463000Y-119253000D01*
X133858000Y-119253000D02*
X133985000Y-119253000D01*
X133096000Y-118491000D02*
X133858000Y-119253000D01*
X136017000Y-118618000D02*
X150368000Y-118618000D01*
X150368000Y-118618000D02*
X151003000Y-119253000D01*
X134620000Y-118618000D02*
X136017000Y-118618000D01*
X133985000Y-117983000D02*
X134620000Y-118618000D01*
X155892500Y-111379000D02*
X155892500Y-118872000D01*
X151892000Y-107378500D02*
X155892500Y-111379000D01*
X150558500Y-103949500D02*
X150558500Y-109410500D01*
X150558500Y-109410500D02*
X154051000Y-112903000D01*
X154051000Y-112903000D02*
X154051000Y-118872000D01*
X151765000Y-95186500D02*
X151193500Y-94615000D01*
X151765000Y-104140000D02*
X151765000Y-95186500D01*
X151257000Y-104648000D02*
X151765000Y-104140000D01*
X151257000Y-108331000D02*
X151257000Y-104648000D01*
X154940000Y-112014000D02*
X151257000Y-108331000D01*
X154940000Y-120078500D02*
X154940000Y-112014000D01*
X154305000Y-120713500D02*
X154940000Y-120078500D01*
D17*
G36*
X165497005Y-77255498D02*
X166910221Y-78199779D01*
X167854502Y-79612997D01*
X168200000Y-81349931D01*
X168200000Y-119310069D01*
X167854502Y-121047003D01*
X166910221Y-122460221D01*
X165497005Y-123404502D01*
X163760069Y-123750000D01*
X138704164Y-123750000D01*
X138893555Y-123293897D01*
X138894045Y-122732964D01*
X138679837Y-122214542D01*
X138283544Y-121817557D01*
X137765497Y-121602445D01*
X137204564Y-121601955D01*
X136686142Y-121816163D01*
X136289157Y-122212456D01*
X136074045Y-122730503D01*
X136073555Y-123291436D01*
X136263030Y-123750000D01*
X131554164Y-123750000D01*
X131743555Y-123293897D01*
X131744045Y-122732964D01*
X131529837Y-122214542D01*
X131133544Y-121817557D01*
X130615497Y-121602445D01*
X130054564Y-121601955D01*
X129536142Y-121816163D01*
X129139157Y-122212456D01*
X128924045Y-122730503D01*
X128923555Y-123291436D01*
X129113030Y-123750000D01*
X125799931Y-123750000D01*
X124062997Y-123404502D01*
X122649779Y-122460221D01*
X121705498Y-121047005D01*
X121517102Y-120099874D01*
X122094370Y-120099874D01*
X122646600Y-121436372D01*
X123668249Y-122459806D01*
X125003782Y-123014368D01*
X126449874Y-123015630D01*
X127786372Y-122463400D01*
X128809806Y-121441751D01*
X129175222Y-120561730D01*
X130148582Y-120561730D01*
X130340001Y-121025000D01*
X130694135Y-121379753D01*
X131157071Y-121571981D01*
X131658330Y-121572418D01*
X132121600Y-121380999D01*
X132476353Y-121026865D01*
X132668581Y-120563929D01*
X132669018Y-120062670D01*
X132477599Y-119599400D01*
X132123465Y-119244647D01*
X131660529Y-119052419D01*
X131159270Y-119051982D01*
X130696000Y-119243401D01*
X130341247Y-119597535D01*
X130149019Y-120060471D01*
X130148582Y-120561730D01*
X129175222Y-120561730D01*
X129364368Y-120106218D01*
X129365616Y-118676167D01*
X132160838Y-118676167D01*
X132302883Y-119019943D01*
X132565673Y-119283192D01*
X132909201Y-119425838D01*
X132956077Y-119425879D01*
X133320599Y-119790401D01*
X133567161Y-119955148D01*
X133858000Y-120013000D01*
X135168731Y-120013000D01*
X135149019Y-120060471D01*
X135148582Y-120561730D01*
X135340001Y-121025000D01*
X135694135Y-121379753D01*
X136157071Y-121571981D01*
X136658330Y-121572418D01*
X137121600Y-121380999D01*
X137476353Y-121026865D01*
X137668581Y-120563929D01*
X137669018Y-120062670D01*
X137648495Y-120013000D01*
X147900537Y-120013000D01*
X147932673Y-120045192D01*
X148276201Y-120187838D01*
X148648167Y-120188162D01*
X148991943Y-120046117D01*
X149255192Y-119783327D01*
X149397838Y-119439799D01*
X149397892Y-119378000D01*
X150053198Y-119378000D01*
X150067878Y-119392680D01*
X150067838Y-119438167D01*
X150209883Y-119781943D01*
X150472673Y-120045192D01*
X150816201Y-120187838D01*
X151188167Y-120188162D01*
X151531943Y-120046117D01*
X151795192Y-119783327D01*
X151937838Y-119439799D01*
X151938162Y-119067833D01*
X151918891Y-119021193D01*
X152417378Y-119519680D01*
X152417338Y-119565167D01*
X152559383Y-119908943D01*
X152822173Y-120172192D01*
X153165701Y-120314838D01*
X153458030Y-120315093D01*
X153370162Y-120526701D01*
X153369838Y-120898667D01*
X153511883Y-121242443D01*
X153774673Y-121505692D01*
X154118201Y-121648338D01*
X154490167Y-121648662D01*
X154833943Y-121506617D01*
X155097192Y-121243827D01*
X155239838Y-120900299D01*
X155239879Y-120853423D01*
X155477401Y-120615901D01*
X155642148Y-120369339D01*
X155695748Y-120099874D01*
X160194370Y-120099874D01*
X160746600Y-121436372D01*
X161768249Y-122459806D01*
X163103782Y-123014368D01*
X164549874Y-123015630D01*
X165886372Y-122463400D01*
X166909806Y-121441751D01*
X167464368Y-120106218D01*
X167465630Y-118660126D01*
X166913400Y-117323628D01*
X165891751Y-116300194D01*
X164556218Y-115745632D01*
X163110126Y-115744370D01*
X161773628Y-116296600D01*
X160750194Y-117318249D01*
X160195632Y-118653782D01*
X160194370Y-120099874D01*
X155695748Y-120099874D01*
X155700000Y-120078500D01*
X155700000Y-119804471D01*
X155705701Y-119806838D01*
X156077667Y-119807162D01*
X156421443Y-119665117D01*
X156684692Y-119402327D01*
X156827338Y-119058799D01*
X156827662Y-118686833D01*
X156685617Y-118343057D01*
X156652500Y-118309882D01*
X156652500Y-111379000D01*
X156594648Y-111088161D01*
X156594648Y-111088160D01*
X156429901Y-110841599D01*
X152827122Y-107238820D01*
X152827162Y-107193333D01*
X152685117Y-106849557D01*
X152422327Y-106586308D01*
X152078799Y-106443662D01*
X152017000Y-106443608D01*
X152017000Y-104962802D01*
X152302401Y-104677401D01*
X152467147Y-104430840D01*
X152467148Y-104430839D01*
X152525000Y-104140000D01*
X152525000Y-95186500D01*
X152467148Y-94895661D01*
X152302401Y-94649099D01*
X152128622Y-94475320D01*
X152128662Y-94429833D01*
X151986617Y-94086057D01*
X151723827Y-93822808D01*
X151380299Y-93680162D01*
X151008333Y-93679838D01*
X150664557Y-93821883D01*
X150401308Y-94084673D01*
X150258662Y-94428201D01*
X150258338Y-94800167D01*
X150400383Y-95143943D01*
X150663173Y-95407192D01*
X151005000Y-95549132D01*
X151005000Y-103122500D01*
X150745299Y-103014662D01*
X150373333Y-103014338D01*
X150029557Y-103156383D01*
X149766308Y-103419173D01*
X149667500Y-103657128D01*
X149667500Y-101386750D01*
X149733000Y-101321250D01*
X149733000Y-100572000D01*
X149987000Y-100572000D01*
X149987000Y-101321250D01*
X150145750Y-101480000D01*
X150361310Y-101480000D01*
X150594699Y-101383327D01*
X150773327Y-101204698D01*
X150870000Y-100971309D01*
X150870000Y-100730750D01*
X150711250Y-100572000D01*
X149987000Y-100572000D01*
X149733000Y-100572000D01*
X149713000Y-100572000D01*
X149713000Y-100318000D01*
X149733000Y-100318000D01*
X149733000Y-100298000D01*
X149987000Y-100298000D01*
X149987000Y-100318000D01*
X150711250Y-100318000D01*
X150870000Y-100159250D01*
X150870000Y-99918691D01*
X150773327Y-99685302D01*
X150771957Y-99683932D01*
X150831431Y-99596890D01*
X150882440Y-99345000D01*
X150882440Y-98545000D01*
X150838162Y-98309683D01*
X150728157Y-98138730D01*
X150747000Y-98044000D01*
X150747000Y-97971463D01*
X150779192Y-97939327D01*
X150921838Y-97595799D01*
X150922162Y-97223833D01*
X150780117Y-96880057D01*
X150674290Y-96774046D01*
X150779192Y-96669327D01*
X150921838Y-96325799D01*
X150922162Y-95953833D01*
X150780117Y-95610057D01*
X150517327Y-95346808D01*
X150173799Y-95204162D01*
X150126923Y-95204121D01*
X149750401Y-94827599D01*
X149541237Y-94687841D01*
X149501671Y-94626354D01*
X149503327Y-94624698D01*
X149600000Y-94391309D01*
X149600000Y-94150750D01*
X149441250Y-93992000D01*
X148717000Y-93992000D01*
X148717000Y-94012000D01*
X148463000Y-94012000D01*
X148463000Y-93992000D01*
X147738750Y-93992000D01*
X147580000Y-94150750D01*
X147580000Y-94391309D01*
X147668514Y-94605000D01*
X142633000Y-94605000D01*
X142342161Y-94662852D01*
X142095599Y-94827599D01*
X139924599Y-96998599D01*
X139759852Y-97245161D01*
X139702000Y-97536000D01*
X139702000Y-98872198D01*
X139052320Y-99521878D01*
X139006833Y-99521838D01*
X138663057Y-99663883D01*
X138399808Y-99926673D01*
X138257162Y-100270201D01*
X138256838Y-100642167D01*
X138398883Y-100985943D01*
X138661673Y-101249192D01*
X139005201Y-101391838D01*
X139377167Y-101392162D01*
X139720943Y-101250117D01*
X139984192Y-100987327D01*
X140126838Y-100643799D01*
X140126879Y-100596923D01*
X140999401Y-99724401D01*
X141164148Y-99477840D01*
X141222000Y-99187000D01*
X141222000Y-97850802D01*
X142947802Y-96125000D01*
X147692069Y-96125000D01*
X147750910Y-96216441D01*
X147830000Y-96270481D01*
X147830000Y-96393000D01*
X147887852Y-96683839D01*
X148052599Y-96930401D01*
X148147500Y-97025302D01*
X148147500Y-97897560D01*
X147580000Y-97897560D01*
X147344683Y-97941838D01*
X147128559Y-98080910D01*
X146983569Y-98293110D01*
X146932560Y-98545000D01*
X146932560Y-99345000D01*
X146976838Y-99580317D01*
X147043329Y-99683646D01*
X147041673Y-99685302D01*
X146995109Y-99797718D01*
X146978957Y-99758628D01*
X146449161Y-99227907D01*
X145756595Y-98940328D01*
X145006695Y-98939674D01*
X144313628Y-99226043D01*
X143782907Y-99755839D01*
X143495328Y-100448405D01*
X143494674Y-101198305D01*
X143781043Y-101891372D01*
X144310839Y-102422093D01*
X145003405Y-102709672D01*
X145753305Y-102710326D01*
X146446372Y-102423957D01*
X146977093Y-101894161D01*
X147198332Y-101361358D01*
X147220301Y-101383327D01*
X147453690Y-101480000D01*
X147669250Y-101480000D01*
X147828000Y-101321250D01*
X147828000Y-100572000D01*
X147808000Y-100572000D01*
X147808000Y-100318000D01*
X147828000Y-100318000D01*
X147828000Y-100298000D01*
X148082000Y-100298000D01*
X148082000Y-100318000D01*
X148102000Y-100318000D01*
X148102000Y-100572000D01*
X148082000Y-100572000D01*
X148082000Y-101321250D01*
X148147500Y-101386750D01*
X148147500Y-114935000D01*
X148205352Y-115225839D01*
X148370099Y-115472401D01*
X151234366Y-118336668D01*
X151189799Y-118318162D01*
X151142923Y-118318121D01*
X150905401Y-118080599D01*
X150658839Y-117915852D01*
X150368000Y-117858000D01*
X134934802Y-117858000D01*
X134920122Y-117843320D01*
X134920162Y-117797833D01*
X134778117Y-117454057D01*
X134515327Y-117190808D01*
X134171799Y-117048162D01*
X133799833Y-117047838D01*
X133456057Y-117189883D01*
X133192808Y-117452673D01*
X133149883Y-117556046D01*
X132910833Y-117555838D01*
X132567057Y-117697883D01*
X132303808Y-117960673D01*
X132161162Y-118304201D01*
X132160838Y-118676167D01*
X129365616Y-118676167D01*
X129365630Y-118660126D01*
X128813400Y-117323628D01*
X127791751Y-116300194D01*
X126456218Y-115745632D01*
X125010126Y-115744370D01*
X123673628Y-116296600D01*
X122650194Y-117318249D01*
X122095632Y-118653782D01*
X122094370Y-120099874D01*
X121517102Y-120099874D01*
X121360000Y-119310069D01*
X121360000Y-93338691D01*
X147580000Y-93338691D01*
X147580000Y-93579250D01*
X147738750Y-93738000D01*
X148463000Y-93738000D01*
X148463000Y-92988750D01*
X148717000Y-92988750D01*
X148717000Y-93738000D01*
X149441250Y-93738000D01*
X149600000Y-93579250D01*
X149600000Y-93338691D01*
X149503327Y-93105302D01*
X149324699Y-92926673D01*
X149091310Y-92830000D01*
X148875750Y-92830000D01*
X148717000Y-92988750D01*
X148463000Y-92988750D01*
X148304250Y-92830000D01*
X148088690Y-92830000D01*
X147855301Y-92926673D01*
X147676673Y-93105302D01*
X147580000Y-93338691D01*
X121360000Y-93338691D01*
X121360000Y-81999874D01*
X122094370Y-81999874D01*
X122646600Y-83336372D01*
X123668249Y-84359806D01*
X125003782Y-84914368D01*
X126449874Y-84915630D01*
X127786372Y-84363400D01*
X128809806Y-83341751D01*
X129364368Y-82006218D01*
X129364373Y-81999874D01*
X160194370Y-81999874D01*
X160746600Y-83336372D01*
X161768249Y-84359806D01*
X163103782Y-84914368D01*
X164549874Y-84915630D01*
X165886372Y-84363400D01*
X166909806Y-83341751D01*
X167464368Y-82006218D01*
X167465630Y-80560126D01*
X166913400Y-79223628D01*
X165891751Y-78200194D01*
X164556218Y-77645632D01*
X163110126Y-77644370D01*
X161773628Y-78196600D01*
X160750194Y-79218249D01*
X160195632Y-80553782D01*
X160194370Y-81999874D01*
X129364373Y-81999874D01*
X129365630Y-80560126D01*
X128813400Y-79223628D01*
X127791751Y-78200194D01*
X126456218Y-77645632D01*
X125010126Y-77644370D01*
X123673628Y-78196600D01*
X122650194Y-79218249D01*
X122095632Y-80553782D01*
X122094370Y-81999874D01*
X121360000Y-81999874D01*
X121360000Y-81349931D01*
X121705498Y-79612995D01*
X122649779Y-78199779D01*
X124062997Y-77255498D01*
X125799931Y-76910000D01*
X163760069Y-76910000D01*
X165497005Y-77255498D01*
X165497005Y-77255498D01*
G37*
X165497005Y-77255498D02*
X166910221Y-78199779D01*
X167854502Y-79612997D01*
X168200000Y-81349931D01*
X168200000Y-119310069D01*
X167854502Y-121047003D01*
X166910221Y-122460221D01*
X165497005Y-123404502D01*
X163760069Y-123750000D01*
X138704164Y-123750000D01*
X138893555Y-123293897D01*
X138894045Y-122732964D01*
X138679837Y-122214542D01*
X138283544Y-121817557D01*
X137765497Y-121602445D01*
X137204564Y-121601955D01*
X136686142Y-121816163D01*
X136289157Y-122212456D01*
X136074045Y-122730503D01*
X136073555Y-123291436D01*
X136263030Y-123750000D01*
X131554164Y-123750000D01*
X131743555Y-123293897D01*
X131744045Y-122732964D01*
X131529837Y-122214542D01*
X131133544Y-121817557D01*
X130615497Y-121602445D01*
X130054564Y-121601955D01*
X129536142Y-121816163D01*
X129139157Y-122212456D01*
X128924045Y-122730503D01*
X128923555Y-123291436D01*
X129113030Y-123750000D01*
X125799931Y-123750000D01*
X124062997Y-123404502D01*
X122649779Y-122460221D01*
X121705498Y-121047005D01*
X121517102Y-120099874D01*
X122094370Y-120099874D01*
X122646600Y-121436372D01*
X123668249Y-122459806D01*
X125003782Y-123014368D01*
X126449874Y-123015630D01*
X127786372Y-122463400D01*
X128809806Y-121441751D01*
X129175222Y-120561730D01*
X130148582Y-120561730D01*
X130340001Y-121025000D01*
X130694135Y-121379753D01*
X131157071Y-121571981D01*
X131658330Y-121572418D01*
X132121600Y-121380999D01*
X132476353Y-121026865D01*
X132668581Y-120563929D01*
X132669018Y-120062670D01*
X132477599Y-119599400D01*
X132123465Y-119244647D01*
X131660529Y-119052419D01*
X131159270Y-119051982D01*
X130696000Y-119243401D01*
X130341247Y-119597535D01*
X130149019Y-120060471D01*
X130148582Y-120561730D01*
X129175222Y-120561730D01*
X129364368Y-120106218D01*
X129365616Y-118676167D01*
X132160838Y-118676167D01*
X132302883Y-119019943D01*
X132565673Y-119283192D01*
X132909201Y-119425838D01*
X132956077Y-119425879D01*
X133320599Y-119790401D01*
X133567161Y-119955148D01*
X133858000Y-120013000D01*
X135168731Y-120013000D01*
X135149019Y-120060471D01*
X135148582Y-120561730D01*
X135340001Y-121025000D01*
X135694135Y-121379753D01*
X136157071Y-121571981D01*
X136658330Y-121572418D01*
X137121600Y-121380999D01*
X137476353Y-121026865D01*
X137668581Y-120563929D01*
X137669018Y-120062670D01*
X137648495Y-120013000D01*
X147900537Y-120013000D01*
X147932673Y-120045192D01*
X148276201Y-120187838D01*
X148648167Y-120188162D01*
X148991943Y-120046117D01*
X149255192Y-119783327D01*
X149397838Y-119439799D01*
X149397892Y-119378000D01*
X150053198Y-119378000D01*
X150067878Y-119392680D01*
X150067838Y-119438167D01*
X150209883Y-119781943D01*
X150472673Y-120045192D01*
X150816201Y-120187838D01*
X151188167Y-120188162D01*
X151531943Y-120046117D01*
X151795192Y-119783327D01*
X151937838Y-119439799D01*
X151938162Y-119067833D01*
X151918891Y-119021193D01*
X152417378Y-119519680D01*
X152417338Y-119565167D01*
X152559383Y-119908943D01*
X152822173Y-120172192D01*
X153165701Y-120314838D01*
X153458030Y-120315093D01*
X153370162Y-120526701D01*
X153369838Y-120898667D01*
X153511883Y-121242443D01*
X153774673Y-121505692D01*
X154118201Y-121648338D01*
X154490167Y-121648662D01*
X154833943Y-121506617D01*
X155097192Y-121243827D01*
X155239838Y-120900299D01*
X155239879Y-120853423D01*
X155477401Y-120615901D01*
X155642148Y-120369339D01*
X155695748Y-120099874D01*
X160194370Y-120099874D01*
X160746600Y-121436372D01*
X161768249Y-122459806D01*
X163103782Y-123014368D01*
X164549874Y-123015630D01*
X165886372Y-122463400D01*
X166909806Y-121441751D01*
X167464368Y-120106218D01*
X167465630Y-118660126D01*
X166913400Y-117323628D01*
X165891751Y-116300194D01*
X164556218Y-115745632D01*
X163110126Y-115744370D01*
X161773628Y-116296600D01*
X160750194Y-117318249D01*
X160195632Y-118653782D01*
X160194370Y-120099874D01*
X155695748Y-120099874D01*
X155700000Y-120078500D01*
X155700000Y-119804471D01*
X155705701Y-119806838D01*
X156077667Y-119807162D01*
X156421443Y-119665117D01*
X156684692Y-119402327D01*
X156827338Y-119058799D01*
X156827662Y-118686833D01*
X156685617Y-118343057D01*
X156652500Y-118309882D01*
X156652500Y-111379000D01*
X156594648Y-111088161D01*
X156594648Y-111088160D01*
X156429901Y-110841599D01*
X152827122Y-107238820D01*
X152827162Y-107193333D01*
X152685117Y-106849557D01*
X152422327Y-106586308D01*
X152078799Y-106443662D01*
X152017000Y-106443608D01*
X152017000Y-104962802D01*
X152302401Y-104677401D01*
X152467147Y-104430840D01*
X152467148Y-104430839D01*
X152525000Y-104140000D01*
X152525000Y-95186500D01*
X152467148Y-94895661D01*
X152302401Y-94649099D01*
X152128622Y-94475320D01*
X152128662Y-94429833D01*
X151986617Y-94086057D01*
X151723827Y-93822808D01*
X151380299Y-93680162D01*
X151008333Y-93679838D01*
X150664557Y-93821883D01*
X150401308Y-94084673D01*
X150258662Y-94428201D01*
X150258338Y-94800167D01*
X150400383Y-95143943D01*
X150663173Y-95407192D01*
X151005000Y-95549132D01*
X151005000Y-103122500D01*
X150745299Y-103014662D01*
X150373333Y-103014338D01*
X150029557Y-103156383D01*
X149766308Y-103419173D01*
X149667500Y-103657128D01*
X149667500Y-101386750D01*
X149733000Y-101321250D01*
X149733000Y-100572000D01*
X149987000Y-100572000D01*
X149987000Y-101321250D01*
X150145750Y-101480000D01*
X150361310Y-101480000D01*
X150594699Y-101383327D01*
X150773327Y-101204698D01*
X150870000Y-100971309D01*
X150870000Y-100730750D01*
X150711250Y-100572000D01*
X149987000Y-100572000D01*
X149733000Y-100572000D01*
X149713000Y-100572000D01*
X149713000Y-100318000D01*
X149733000Y-100318000D01*
X149733000Y-100298000D01*
X149987000Y-100298000D01*
X149987000Y-100318000D01*
X150711250Y-100318000D01*
X150870000Y-100159250D01*
X150870000Y-99918691D01*
X150773327Y-99685302D01*
X150771957Y-99683932D01*
X150831431Y-99596890D01*
X150882440Y-99345000D01*
X150882440Y-98545000D01*
X150838162Y-98309683D01*
X150728157Y-98138730D01*
X150747000Y-98044000D01*
X150747000Y-97971463D01*
X150779192Y-97939327D01*
X150921838Y-97595799D01*
X150922162Y-97223833D01*
X150780117Y-96880057D01*
X150674290Y-96774046D01*
X150779192Y-96669327D01*
X150921838Y-96325799D01*
X150922162Y-95953833D01*
X150780117Y-95610057D01*
X150517327Y-95346808D01*
X150173799Y-95204162D01*
X150126923Y-95204121D01*
X149750401Y-94827599D01*
X149541237Y-94687841D01*
X149501671Y-94626354D01*
X149503327Y-94624698D01*
X149600000Y-94391309D01*
X149600000Y-94150750D01*
X149441250Y-93992000D01*
X148717000Y-93992000D01*
X148717000Y-94012000D01*
X148463000Y-94012000D01*
X148463000Y-93992000D01*
X147738750Y-93992000D01*
X147580000Y-94150750D01*
X147580000Y-94391309D01*
X147668514Y-94605000D01*
X142633000Y-94605000D01*
X142342161Y-94662852D01*
X142095599Y-94827599D01*
X139924599Y-96998599D01*
X139759852Y-97245161D01*
X139702000Y-97536000D01*
X139702000Y-98872198D01*
X139052320Y-99521878D01*
X139006833Y-99521838D01*
X138663057Y-99663883D01*
X138399808Y-99926673D01*
X138257162Y-100270201D01*
X138256838Y-100642167D01*
X138398883Y-100985943D01*
X138661673Y-101249192D01*
X139005201Y-101391838D01*
X139377167Y-101392162D01*
X139720943Y-101250117D01*
X139984192Y-100987327D01*
X140126838Y-100643799D01*
X140126879Y-100596923D01*
X140999401Y-99724401D01*
X141164148Y-99477840D01*
X141222000Y-99187000D01*
X141222000Y-97850802D01*
X142947802Y-96125000D01*
X147692069Y-96125000D01*
X147750910Y-96216441D01*
X147830000Y-96270481D01*
X147830000Y-96393000D01*
X147887852Y-96683839D01*
X148052599Y-96930401D01*
X148147500Y-97025302D01*
X148147500Y-97897560D01*
X147580000Y-97897560D01*
X147344683Y-97941838D01*
X147128559Y-98080910D01*
X146983569Y-98293110D01*
X146932560Y-98545000D01*
X146932560Y-99345000D01*
X146976838Y-99580317D01*
X147043329Y-99683646D01*
X147041673Y-99685302D01*
X146995109Y-99797718D01*
X146978957Y-99758628D01*
X146449161Y-99227907D01*
X145756595Y-98940328D01*
X145006695Y-98939674D01*
X144313628Y-99226043D01*
X143782907Y-99755839D01*
X143495328Y-100448405D01*
X143494674Y-101198305D01*
X143781043Y-101891372D01*
X144310839Y-102422093D01*
X145003405Y-102709672D01*
X145753305Y-102710326D01*
X146446372Y-102423957D01*
X146977093Y-101894161D01*
X147198332Y-101361358D01*
X147220301Y-101383327D01*
X147453690Y-101480000D01*
X147669250Y-101480000D01*
X147828000Y-101321250D01*
X147828000Y-100572000D01*
X147808000Y-100572000D01*
X147808000Y-100318000D01*
X147828000Y-100318000D01*
X147828000Y-100298000D01*
X148082000Y-100298000D01*
X148082000Y-100318000D01*
X148102000Y-100318000D01*
X148102000Y-100572000D01*
X148082000Y-100572000D01*
X148082000Y-101321250D01*
X148147500Y-101386750D01*
X148147500Y-114935000D01*
X148205352Y-115225839D01*
X148370099Y-115472401D01*
X151234366Y-118336668D01*
X151189799Y-118318162D01*
X151142923Y-118318121D01*
X150905401Y-118080599D01*
X150658839Y-117915852D01*
X150368000Y-117858000D01*
X134934802Y-117858000D01*
X134920122Y-117843320D01*
X134920162Y-117797833D01*
X134778117Y-117454057D01*
X134515327Y-117190808D01*
X134171799Y-117048162D01*
X133799833Y-117047838D01*
X133456057Y-117189883D01*
X133192808Y-117452673D01*
X133149883Y-117556046D01*
X132910833Y-117555838D01*
X132567057Y-117697883D01*
X132303808Y-117960673D01*
X132161162Y-118304201D01*
X132160838Y-118676167D01*
X129365616Y-118676167D01*
X129365630Y-118660126D01*
X128813400Y-117323628D01*
X127791751Y-116300194D01*
X126456218Y-115745632D01*
X125010126Y-115744370D01*
X123673628Y-116296600D01*
X122650194Y-117318249D01*
X122095632Y-118653782D01*
X122094370Y-120099874D01*
X121517102Y-120099874D01*
X121360000Y-119310069D01*
X121360000Y-93338691D01*
X147580000Y-93338691D01*
X147580000Y-93579250D01*
X147738750Y-93738000D01*
X148463000Y-93738000D01*
X148463000Y-92988750D01*
X148717000Y-92988750D01*
X148717000Y-93738000D01*
X149441250Y-93738000D01*
X149600000Y-93579250D01*
X149600000Y-93338691D01*
X149503327Y-93105302D01*
X149324699Y-92926673D01*
X149091310Y-92830000D01*
X148875750Y-92830000D01*
X148717000Y-92988750D01*
X148463000Y-92988750D01*
X148304250Y-92830000D01*
X148088690Y-92830000D01*
X147855301Y-92926673D01*
X147676673Y-93105302D01*
X147580000Y-93338691D01*
X121360000Y-93338691D01*
X121360000Y-81999874D01*
X122094370Y-81999874D01*
X122646600Y-83336372D01*
X123668249Y-84359806D01*
X125003782Y-84914368D01*
X126449874Y-84915630D01*
X127786372Y-84363400D01*
X128809806Y-83341751D01*
X129364368Y-82006218D01*
X129364373Y-81999874D01*
X160194370Y-81999874D01*
X160746600Y-83336372D01*
X161768249Y-84359806D01*
X163103782Y-84914368D01*
X164549874Y-84915630D01*
X165886372Y-84363400D01*
X166909806Y-83341751D01*
X167464368Y-82006218D01*
X167465630Y-80560126D01*
X166913400Y-79223628D01*
X165891751Y-78200194D01*
X164556218Y-77645632D01*
X163110126Y-77644370D01*
X161773628Y-78196600D01*
X160750194Y-79218249D01*
X160195632Y-80553782D01*
X160194370Y-81999874D01*
X129364373Y-81999874D01*
X129365630Y-80560126D01*
X128813400Y-79223628D01*
X127791751Y-78200194D01*
X126456218Y-77645632D01*
X125010126Y-77644370D01*
X123673628Y-78196600D01*
X122650194Y-79218249D01*
X122095632Y-80553782D01*
X122094370Y-81999874D01*
X121360000Y-81999874D01*
X121360000Y-81349931D01*
X121705498Y-79612995D01*
X122649779Y-78199779D01*
X124062997Y-77255498D01*
X125799931Y-76910000D01*
X163760069Y-76910000D01*
X165497005Y-77255498D01*
M02*
