M48
;DRILL file {KiCad 4.0.7} date 07/18/19 16:41:40
;FORMAT={-:-/ absolute / metric / decimal}
FMAT,2
METRIC,TZ
T1C0.400
T2C0.850
T3C1.150
%
G90
G05
M71
T1
X130.81Y-116.205
X132.08Y-116.205
X133.096Y-118.491
X133.35Y-116.205
X133.985Y-117.983
X134.62Y-116.205
X135.89Y-116.205
X137.16Y-116.205
X139.192Y-100.457
X139.573Y-121.92
X139.573Y-123.19
X145.415Y-121.92
X145.415Y-123.063
X145.796Y-93.853
X146.939Y-93.853
X148.463Y-119.253
X149.987Y-96.139
X149.987Y-97.409
X150.558Y-103.95
X150.876Y-102.235
X151.003Y-119.253
X151.194Y-94.615
X151.892Y-107.378
X153.352Y-119.38
X154.051Y-118.872
X154.305Y-120.713
X155.892Y-118.872
X159.639Y-116.84
X159.639Y-118.11
X160.02Y-121.285
X160.02Y-122.555
T2
X131.409Y-120.312
X136.409Y-120.312
T3
X130.334Y-123.012
X137.484Y-123.012
T0
M30
