G04 #@! TF.FileFunction,Copper,L1,Top,Signal*
%FSLAX46Y46*%
G04 Gerber Fmt 4.6, Leading zero omitted, Abs format (unit mm)*
G04 Created by KiCad (PCBNEW 4.0.7) date 07/18/19 16:41:38*
%MOMM*%
%LPD*%
G01*
G04 APERTURE LIST*
%ADD10C,0.100000*%
%ADD11O,2.500000X1.000000*%
%ADD12C,6.000000*%
%ADD13R,0.750000X0.800000*%
%ADD14R,1.500000X1.550000*%
%ADD15R,1.275000X1.550000*%
%ADD16C,1.550000*%
%ADD17C,1.250000*%
%ADD18R,0.400000X1.350000*%
%ADD19R,0.600000X1.500000*%
%ADD20R,1.060000X0.650000*%
%ADD21C,0.600000*%
%ADD22C,0.250000*%
%ADD23C,0.254000*%
G04 APERTURE END LIST*
D10*
D11*
X137030000Y-106045000D03*
X137030000Y-103505000D03*
X137030000Y-100965000D03*
X137030000Y-98425000D03*
X137030000Y-95885000D03*
X137030000Y-93345000D03*
X152530000Y-93345000D03*
X152530000Y-95885000D03*
X152530000Y-98425000D03*
X152530000Y-100965000D03*
X152530000Y-103505000D03*
X152530000Y-106045000D03*
D12*
X163830000Y-119380000D03*
X125730000Y-119380000D03*
X125730000Y-81280000D03*
D13*
X144780000Y-118225000D03*
X144780000Y-116725000D03*
X139700000Y-116725000D03*
X139700000Y-118225000D03*
X142240000Y-116725000D03*
X142240000Y-118225000D03*
X158369000Y-119265000D03*
X158369000Y-120765000D03*
D14*
X134908800Y-123012200D03*
D15*
X136846300Y-123012200D03*
D16*
X137483800Y-123012200D03*
X130333800Y-123012200D03*
D17*
X131408800Y-120312200D03*
D18*
X132608800Y-120312200D03*
X133258800Y-120312200D03*
X135208800Y-120312200D03*
X134558800Y-120312200D03*
X133908800Y-120312200D03*
D17*
X136408800Y-120312200D03*
D15*
X130971300Y-123012200D03*
D14*
X132908800Y-123012200D03*
D19*
X156083000Y-117061000D03*
X154813000Y-117061000D03*
X153543000Y-117061000D03*
X152273000Y-117061000D03*
X151003000Y-117061000D03*
X149733000Y-117061000D03*
X148463000Y-117061000D03*
X147193000Y-117061000D03*
X147193000Y-122461000D03*
X148463000Y-122461000D03*
X149733000Y-122461000D03*
X151003000Y-122461000D03*
X152273000Y-122461000D03*
X153543000Y-122461000D03*
X154813000Y-122461000D03*
X156083000Y-122461000D03*
D20*
X141140000Y-120589000D03*
X141140000Y-121539000D03*
X141140000Y-122489000D03*
X143340000Y-122489000D03*
X143340000Y-120589000D03*
D12*
X163830000Y-81280000D03*
D21*
X130810000Y-116205000D03*
X132080000Y-116205000D03*
X133350000Y-116205000D03*
X134620000Y-116205000D03*
X135890000Y-116205000D03*
X137160000Y-116205000D03*
X145415000Y-123063000D03*
X139573000Y-123190000D03*
X139573000Y-121920000D03*
X145415000Y-121920000D03*
X146939000Y-93853000D03*
X145796000Y-93853000D03*
X160020000Y-121285000D03*
X159639000Y-116840000D03*
X159639000Y-118110000D03*
X160020000Y-122555000D03*
X150876000Y-102235000D03*
X149987000Y-96139000D03*
X139192000Y-100457000D03*
X153352500Y-119380000D03*
X149987000Y-97409000D03*
X148463000Y-119253000D03*
X133096000Y-118491000D03*
X151003000Y-119253000D03*
X133985000Y-117983000D03*
X155892500Y-118872000D03*
X151892000Y-107378500D03*
X150558500Y-103949500D03*
X154051000Y-118872000D03*
X151193500Y-94615000D03*
X154305000Y-120713500D03*
D22*
X144780000Y-118225000D02*
X144780000Y-119507000D01*
X152273000Y-119507000D02*
X152273000Y-117061000D01*
X151641002Y-120138998D02*
X152273000Y-119507000D01*
X145411998Y-120138998D02*
X151641002Y-120138998D01*
X144780000Y-119507000D02*
X145411998Y-120138998D01*
X135208800Y-120312200D02*
X135208800Y-119426200D01*
X132080000Y-116205000D02*
X130810000Y-116205000D01*
X133350000Y-116205000D02*
X132080000Y-116205000D01*
X134620000Y-116205000D02*
X133350000Y-116205000D01*
X135890000Y-116205000D02*
X134620000Y-116205000D01*
X137160000Y-116205000D02*
X135890000Y-116205000D01*
X135255000Y-118110000D02*
X137160000Y-116205000D01*
X135255000Y-119380000D02*
X135255000Y-118110000D01*
X135208800Y-119426200D02*
X135255000Y-119380000D01*
X145415000Y-121920000D02*
X145415000Y-123063000D01*
X139700000Y-123190000D02*
X140081000Y-123571000D01*
X140081000Y-123571000D02*
X144907000Y-123571000D01*
X144907000Y-123571000D02*
X145415000Y-123063000D01*
X139573000Y-123190000D02*
X139573000Y-121920000D01*
X139954000Y-121539000D02*
X139573000Y-121920000D01*
X139954000Y-121539000D02*
X141140000Y-121539000D01*
X139573000Y-123190000D02*
X139700000Y-123190000D01*
X160020000Y-121285000D02*
X160020000Y-122428000D01*
X159639000Y-120904000D02*
X160020000Y-121285000D01*
X159639000Y-118110000D02*
X159639000Y-116840000D01*
X158369000Y-118110000D02*
X159639000Y-116840000D01*
X158369000Y-119265000D02*
X158369000Y-118110000D01*
X159639000Y-118110000D02*
X159639000Y-120904000D01*
X160020000Y-122428000D02*
X160020000Y-122555000D01*
X150876000Y-102235000D02*
X152527000Y-102235000D01*
X152530000Y-102232000D02*
X152530000Y-100965000D01*
X152527000Y-102235000D02*
X152530000Y-102232000D01*
X141140000Y-120589000D02*
X142052000Y-120589000D01*
X142052000Y-122489000D02*
X141140000Y-122489000D01*
X142240000Y-122301000D02*
X142052000Y-122489000D01*
X142240000Y-120777000D02*
X142240000Y-122301000D01*
X142052000Y-120589000D02*
X142240000Y-120777000D01*
X132608800Y-120312200D02*
X132608800Y-121432800D01*
X139700000Y-119380000D02*
X139700000Y-118225000D01*
X137414000Y-121666000D02*
X139700000Y-119380000D01*
X132842000Y-121666000D02*
X137414000Y-121666000D01*
X132608800Y-121432800D02*
X132842000Y-121666000D01*
X139700000Y-118225000D02*
X140450000Y-118225000D01*
X141140000Y-118915000D02*
X141140000Y-120589000D01*
X140450000Y-118225000D02*
X141140000Y-118915000D01*
X150241000Y-95885000D02*
X152530000Y-95885000D01*
X150241000Y-95885000D02*
X149987000Y-96139000D01*
X137030000Y-100965000D02*
X138684000Y-100965000D01*
X138684000Y-100965000D02*
X139192000Y-100457000D01*
X153352500Y-119380000D02*
X153352500Y-119443500D01*
X155514000Y-120589000D02*
X156083000Y-121158000D01*
X154622500Y-119697500D02*
X155514000Y-120589000D01*
X153606500Y-119697500D02*
X154622500Y-119697500D01*
X153352500Y-119443500D02*
X153606500Y-119697500D01*
X152844500Y-120589000D02*
X152844500Y-119888000D01*
X152844500Y-119888000D02*
X153352500Y-119380000D01*
X152530000Y-98425000D02*
X151003000Y-98425000D01*
X151003000Y-98425000D02*
X149987000Y-97409000D01*
X143340000Y-120589000D02*
X143340000Y-118702000D01*
X142863000Y-118225000D02*
X142240000Y-118225000D01*
X143340000Y-118702000D02*
X142863000Y-118225000D01*
X156083000Y-122461000D02*
X156083000Y-121158000D01*
X156083000Y-121158000D02*
X156476000Y-120765000D01*
X156476000Y-120765000D02*
X158369000Y-120765000D01*
X143340000Y-120589000D02*
X152844500Y-120589000D01*
X133258800Y-120312200D02*
X133258800Y-118653800D01*
X148463000Y-119253000D02*
X148844000Y-118872000D01*
X148844000Y-118872000D02*
X149479000Y-118872000D01*
X149479000Y-118872000D02*
X149733000Y-118618000D01*
X149733000Y-118618000D02*
X149733000Y-117061000D01*
X133258800Y-118653800D02*
X133096000Y-118491000D01*
X133908800Y-120312200D02*
X133908800Y-118059200D01*
X151003000Y-119253000D02*
X151003000Y-117061000D01*
X133908800Y-118059200D02*
X133985000Y-117983000D01*
X152530000Y-106045000D02*
X152530000Y-106740500D01*
X154813000Y-118554500D02*
X154813000Y-117061000D01*
X155130500Y-118872000D02*
X154813000Y-118554500D01*
X155892500Y-118872000D02*
X155130500Y-118872000D01*
X152530000Y-106740500D02*
X151892000Y-107378500D01*
X151003000Y-103505000D02*
X150558500Y-103949500D01*
X152530000Y-103505000D02*
X151003000Y-103505000D01*
X154051000Y-118872000D02*
X153543000Y-118364000D01*
X153543000Y-118364000D02*
X153543000Y-117061000D01*
X152530000Y-94167500D02*
X152530000Y-93345000D01*
X152082500Y-94615000D02*
X152530000Y-94167500D01*
X151193500Y-94615000D02*
X152082500Y-94615000D01*
X153924000Y-121094500D02*
X154305000Y-120713500D01*
X149923500Y-121094500D02*
X153924000Y-121094500D01*
X149733000Y-122461000D02*
X149733000Y-121285000D01*
X149733000Y-121285000D02*
X149923500Y-121094500D01*
D23*
G36*
X165497005Y-77255498D02*
X166910221Y-78199779D01*
X167854502Y-79612997D01*
X168200000Y-81349931D01*
X168200000Y-119310069D01*
X167854502Y-121047003D01*
X166910221Y-122460221D01*
X165497005Y-123404502D01*
X163760069Y-123750000D01*
X156718028Y-123750000D01*
X156834441Y-123675090D01*
X156979431Y-123462890D01*
X157030440Y-123211000D01*
X157030440Y-121711000D01*
X156995442Y-121525000D01*
X157471069Y-121525000D01*
X157529910Y-121616441D01*
X157742110Y-121761431D01*
X157994000Y-121812440D01*
X158744000Y-121812440D01*
X158979317Y-121768162D01*
X159195441Y-121629090D01*
X159340431Y-121416890D01*
X159391440Y-121165000D01*
X159391440Y-120365000D01*
X159347162Y-120129683D01*
X159327981Y-120099874D01*
X160194370Y-120099874D01*
X160746600Y-121436372D01*
X161768249Y-122459806D01*
X163103782Y-123014368D01*
X164549874Y-123015630D01*
X165886372Y-122463400D01*
X166909806Y-121441751D01*
X167464368Y-120106218D01*
X167465630Y-118660126D01*
X166913400Y-117323628D01*
X165891751Y-116300194D01*
X164556218Y-115745632D01*
X163110126Y-115744370D01*
X161773628Y-116296600D01*
X160750194Y-117318249D01*
X160195632Y-118653782D01*
X160194370Y-120099874D01*
X159327981Y-120099874D01*
X159280671Y-120026354D01*
X159282327Y-120024698D01*
X159379000Y-119791309D01*
X159379000Y-119550750D01*
X159220250Y-119392000D01*
X158496000Y-119392000D01*
X158496000Y-119412000D01*
X158242000Y-119412000D01*
X158242000Y-119392000D01*
X157517750Y-119392000D01*
X157359000Y-119550750D01*
X157359000Y-119791309D01*
X157447514Y-120005000D01*
X156476000Y-120005000D01*
X156185161Y-120062852D01*
X156111723Y-120111921D01*
X155806728Y-119806926D01*
X156077667Y-119807162D01*
X156421443Y-119665117D01*
X156684692Y-119402327D01*
X156827338Y-119058799D01*
X156827616Y-118738691D01*
X157359000Y-118738691D01*
X157359000Y-118979250D01*
X157517750Y-119138000D01*
X158242000Y-119138000D01*
X158242000Y-118388750D01*
X158496000Y-118388750D01*
X158496000Y-119138000D01*
X159220250Y-119138000D01*
X159379000Y-118979250D01*
X159379000Y-118738691D01*
X159282327Y-118505302D01*
X159103699Y-118326673D01*
X158870310Y-118230000D01*
X158654750Y-118230000D01*
X158496000Y-118388750D01*
X158242000Y-118388750D01*
X158083250Y-118230000D01*
X157867690Y-118230000D01*
X157634301Y-118326673D01*
X157455673Y-118505302D01*
X157359000Y-118738691D01*
X156827616Y-118738691D01*
X156827662Y-118686833D01*
X156696171Y-118368600D01*
X156742699Y-118349327D01*
X156921327Y-118170698D01*
X157018000Y-117937309D01*
X157018000Y-117346750D01*
X156859250Y-117188000D01*
X156210000Y-117188000D01*
X156210000Y-117208000D01*
X155956000Y-117208000D01*
X155956000Y-117188000D01*
X155936000Y-117188000D01*
X155936000Y-116934000D01*
X155956000Y-116934000D01*
X155956000Y-115834750D01*
X156210000Y-115834750D01*
X156210000Y-116934000D01*
X156859250Y-116934000D01*
X157018000Y-116775250D01*
X157018000Y-116184691D01*
X156921327Y-115951302D01*
X156742699Y-115772673D01*
X156509310Y-115676000D01*
X156368750Y-115676000D01*
X156210000Y-115834750D01*
X155956000Y-115834750D01*
X155797250Y-115676000D01*
X155656690Y-115676000D01*
X155439878Y-115765806D01*
X155364890Y-115714569D01*
X155113000Y-115663560D01*
X154513000Y-115663560D01*
X154277683Y-115707838D01*
X154178472Y-115771678D01*
X154094890Y-115714569D01*
X153843000Y-115663560D01*
X153243000Y-115663560D01*
X153007683Y-115707838D01*
X152908472Y-115771678D01*
X152824890Y-115714569D01*
X152573000Y-115663560D01*
X151973000Y-115663560D01*
X151737683Y-115707838D01*
X151638472Y-115771678D01*
X151554890Y-115714569D01*
X151303000Y-115663560D01*
X150703000Y-115663560D01*
X150467683Y-115707838D01*
X150368472Y-115771678D01*
X150284890Y-115714569D01*
X150033000Y-115663560D01*
X149433000Y-115663560D01*
X149197683Y-115707838D01*
X149098472Y-115771678D01*
X149014890Y-115714569D01*
X148763000Y-115663560D01*
X148163000Y-115663560D01*
X147927683Y-115707838D01*
X147828472Y-115771678D01*
X147744890Y-115714569D01*
X147493000Y-115663560D01*
X146893000Y-115663560D01*
X146657683Y-115707838D01*
X146441559Y-115846910D01*
X146296569Y-116059110D01*
X146245560Y-116311000D01*
X146245560Y-117811000D01*
X146289838Y-118046317D01*
X146428910Y-118262441D01*
X146641110Y-118407431D01*
X146893000Y-118458440D01*
X147493000Y-118458440D01*
X147728317Y-118414162D01*
X147827528Y-118350322D01*
X147911110Y-118407431D01*
X148011701Y-118427801D01*
X147934057Y-118459883D01*
X147670808Y-118722673D01*
X147528162Y-119066201D01*
X147527890Y-119378998D01*
X145726800Y-119378998D01*
X145540000Y-119192198D01*
X145540000Y-119131844D01*
X145606441Y-119089090D01*
X145751431Y-118876890D01*
X145802440Y-118625000D01*
X145802440Y-117825000D01*
X145758162Y-117589683D01*
X145691671Y-117486354D01*
X145693327Y-117484698D01*
X145790000Y-117251309D01*
X145790000Y-117010750D01*
X145631250Y-116852000D01*
X144907000Y-116852000D01*
X144907000Y-116872000D01*
X144653000Y-116872000D01*
X144653000Y-116852000D01*
X143928750Y-116852000D01*
X143770000Y-117010750D01*
X143770000Y-117251309D01*
X143866673Y-117484698D01*
X143868043Y-117486068D01*
X143808569Y-117573110D01*
X143757560Y-117825000D01*
X143757560Y-118044758D01*
X143400401Y-117687599D01*
X143191237Y-117547841D01*
X143151671Y-117486354D01*
X143153327Y-117484698D01*
X143250000Y-117251309D01*
X143250000Y-117010750D01*
X143091250Y-116852000D01*
X142367000Y-116852000D01*
X142367000Y-116872000D01*
X142113000Y-116872000D01*
X142113000Y-116852000D01*
X141388750Y-116852000D01*
X141230000Y-117010750D01*
X141230000Y-117251309D01*
X141326673Y-117484698D01*
X141328043Y-117486068D01*
X141268569Y-117573110D01*
X141217560Y-117825000D01*
X141217560Y-117917758D01*
X140987401Y-117687599D01*
X140740839Y-117522852D01*
X140619645Y-117498745D01*
X140611671Y-117486354D01*
X140613327Y-117484698D01*
X140710000Y-117251309D01*
X140710000Y-117010750D01*
X140551250Y-116852000D01*
X139827000Y-116852000D01*
X139827000Y-116872000D01*
X139573000Y-116872000D01*
X139573000Y-116852000D01*
X138848750Y-116852000D01*
X138690000Y-117010750D01*
X138690000Y-117251309D01*
X138786673Y-117484698D01*
X138788043Y-117486068D01*
X138728569Y-117573110D01*
X138677560Y-117825000D01*
X138677560Y-118625000D01*
X138721838Y-118860317D01*
X138860910Y-119076441D01*
X138901217Y-119103981D01*
X137668779Y-120336419D01*
X137669018Y-120062670D01*
X137477599Y-119599400D01*
X137123465Y-119244647D01*
X136660529Y-119052419D01*
X136159270Y-119051982D01*
X135849572Y-119179946D01*
X135768498Y-119098873D01*
X135535109Y-119002200D01*
X135467550Y-119002200D01*
X135308800Y-119160950D01*
X135308800Y-119319267D01*
X135222890Y-119185759D01*
X135010690Y-119040769D01*
X134983015Y-119035165D01*
X134950050Y-119002200D01*
X134882491Y-119002200D01*
X134862047Y-119010668D01*
X134758800Y-118989760D01*
X134668800Y-118989760D01*
X134668800Y-118621530D01*
X134777192Y-118513327D01*
X134919838Y-118169799D01*
X134920162Y-117797833D01*
X134778117Y-117454057D01*
X134515327Y-117190808D01*
X134171799Y-117048162D01*
X133799833Y-117047838D01*
X133456057Y-117189883D01*
X133192808Y-117452673D01*
X133149883Y-117556046D01*
X132910833Y-117555838D01*
X132567057Y-117697883D01*
X132303808Y-117960673D01*
X132161162Y-118304201D01*
X132160838Y-118676167D01*
X132298952Y-119010429D01*
X132173483Y-119034038D01*
X131957359Y-119173110D01*
X131955994Y-119175107D01*
X131660529Y-119052419D01*
X131159270Y-119051982D01*
X130696000Y-119243401D01*
X130341247Y-119597535D01*
X130149019Y-120060471D01*
X130148582Y-120561730D01*
X130340001Y-121025000D01*
X130694135Y-121379753D01*
X131157071Y-121571981D01*
X131658330Y-121572418D01*
X131859997Y-121489091D01*
X131892761Y-121653807D01*
X131886072Y-121658112D01*
X131860690Y-121640769D01*
X131608800Y-121589760D01*
X130333800Y-121589760D01*
X130267998Y-121602141D01*
X130054564Y-121601955D01*
X129536142Y-121816163D01*
X129139157Y-122212456D01*
X128924045Y-122730503D01*
X128923555Y-123291436D01*
X129113030Y-123750000D01*
X125799931Y-123750000D01*
X124062997Y-123404502D01*
X122649779Y-122460221D01*
X121705498Y-121047005D01*
X121517102Y-120099874D01*
X122094370Y-120099874D01*
X122646600Y-121436372D01*
X123668249Y-122459806D01*
X125003782Y-123014368D01*
X126449874Y-123015630D01*
X127786372Y-122463400D01*
X128809806Y-121441751D01*
X129364368Y-120106218D01*
X129365630Y-118660126D01*
X128813400Y-117323628D01*
X127791751Y-116300194D01*
X127547305Y-116198691D01*
X138690000Y-116198691D01*
X138690000Y-116439250D01*
X138848750Y-116598000D01*
X139573000Y-116598000D01*
X139573000Y-115848750D01*
X139827000Y-115848750D01*
X139827000Y-116598000D01*
X140551250Y-116598000D01*
X140710000Y-116439250D01*
X140710000Y-116198691D01*
X141230000Y-116198691D01*
X141230000Y-116439250D01*
X141388750Y-116598000D01*
X142113000Y-116598000D01*
X142113000Y-115848750D01*
X142367000Y-115848750D01*
X142367000Y-116598000D01*
X143091250Y-116598000D01*
X143250000Y-116439250D01*
X143250000Y-116198691D01*
X143770000Y-116198691D01*
X143770000Y-116439250D01*
X143928750Y-116598000D01*
X144653000Y-116598000D01*
X144653000Y-115848750D01*
X144907000Y-115848750D01*
X144907000Y-116598000D01*
X145631250Y-116598000D01*
X145790000Y-116439250D01*
X145790000Y-116198691D01*
X145693327Y-115965302D01*
X145514699Y-115786673D01*
X145281310Y-115690000D01*
X145065750Y-115690000D01*
X144907000Y-115848750D01*
X144653000Y-115848750D01*
X144494250Y-115690000D01*
X144278690Y-115690000D01*
X144045301Y-115786673D01*
X143866673Y-115965302D01*
X143770000Y-116198691D01*
X143250000Y-116198691D01*
X143153327Y-115965302D01*
X142974699Y-115786673D01*
X142741310Y-115690000D01*
X142525750Y-115690000D01*
X142367000Y-115848750D01*
X142113000Y-115848750D01*
X141954250Y-115690000D01*
X141738690Y-115690000D01*
X141505301Y-115786673D01*
X141326673Y-115965302D01*
X141230000Y-116198691D01*
X140710000Y-116198691D01*
X140613327Y-115965302D01*
X140434699Y-115786673D01*
X140201310Y-115690000D01*
X139985750Y-115690000D01*
X139827000Y-115848750D01*
X139573000Y-115848750D01*
X139414250Y-115690000D01*
X139198690Y-115690000D01*
X138965301Y-115786673D01*
X138786673Y-115965302D01*
X138690000Y-116198691D01*
X127547305Y-116198691D01*
X126456218Y-115745632D01*
X125010126Y-115744370D01*
X123673628Y-116296600D01*
X122650194Y-117318249D01*
X122095632Y-118653782D01*
X122094370Y-120099874D01*
X121517102Y-120099874D01*
X121360000Y-119310069D01*
X121360000Y-106346874D01*
X135185881Y-106346874D01*
X135387632Y-106757763D01*
X135728322Y-107045002D01*
X136153000Y-107180000D01*
X136903000Y-107180000D01*
X136903000Y-106172000D01*
X137157000Y-106172000D01*
X137157000Y-107180000D01*
X137907000Y-107180000D01*
X138331678Y-107045002D01*
X138672368Y-106757763D01*
X138874119Y-106346874D01*
X138747954Y-106172000D01*
X137157000Y-106172000D01*
X136903000Y-106172000D01*
X135312046Y-106172000D01*
X135185881Y-106346874D01*
X121360000Y-106346874D01*
X121360000Y-106045000D01*
X150608071Y-106045000D01*
X150694468Y-106479346D01*
X150940505Y-106847566D01*
X151065406Y-106931022D01*
X150957162Y-107191701D01*
X150956838Y-107563667D01*
X151098883Y-107907443D01*
X151361673Y-108170692D01*
X151705201Y-108313338D01*
X152077167Y-108313662D01*
X152420943Y-108171617D01*
X152684192Y-107908827D01*
X152826838Y-107565299D01*
X152826879Y-107518423D01*
X153067401Y-107277901D01*
X153132816Y-107180000D01*
X153316929Y-107180000D01*
X153751275Y-107093603D01*
X154119495Y-106847566D01*
X154365532Y-106479346D01*
X154451929Y-106045000D01*
X154365532Y-105610654D01*
X154119495Y-105242434D01*
X153751275Y-104996397D01*
X153316929Y-104910000D01*
X151743071Y-104910000D01*
X151308725Y-104996397D01*
X150940505Y-105242434D01*
X150694468Y-105610654D01*
X150608071Y-106045000D01*
X121360000Y-106045000D01*
X121360000Y-105743126D01*
X135185881Y-105743126D01*
X135312046Y-105918000D01*
X136903000Y-105918000D01*
X136903000Y-104910000D01*
X137157000Y-104910000D01*
X137157000Y-105918000D01*
X138747954Y-105918000D01*
X138874119Y-105743126D01*
X138672368Y-105332237D01*
X138331678Y-105044998D01*
X137907000Y-104910000D01*
X137157000Y-104910000D01*
X136903000Y-104910000D01*
X136153000Y-104910000D01*
X135728322Y-105044998D01*
X135387632Y-105332237D01*
X135185881Y-105743126D01*
X121360000Y-105743126D01*
X121360000Y-103505000D01*
X135108071Y-103505000D01*
X135194468Y-103939346D01*
X135440505Y-104307566D01*
X135808725Y-104553603D01*
X136243071Y-104640000D01*
X137816929Y-104640000D01*
X138251275Y-104553603D01*
X138619495Y-104307566D01*
X138735022Y-104134667D01*
X149623338Y-104134667D01*
X149765383Y-104478443D01*
X150028173Y-104741692D01*
X150371701Y-104884338D01*
X150743667Y-104884662D01*
X151087443Y-104742617D01*
X151289593Y-104540819D01*
X151308725Y-104553603D01*
X151743071Y-104640000D01*
X153316929Y-104640000D01*
X153751275Y-104553603D01*
X154119495Y-104307566D01*
X154365532Y-103939346D01*
X154451929Y-103505000D01*
X154365532Y-103070654D01*
X154119495Y-102702434D01*
X153751275Y-102456397D01*
X153316929Y-102370000D01*
X151743071Y-102370000D01*
X151308725Y-102456397D01*
X150940505Y-102702434D01*
X150898124Y-102765861D01*
X150712161Y-102802852D01*
X150465599Y-102967599D01*
X150418820Y-103014378D01*
X150373333Y-103014338D01*
X150029557Y-103156383D01*
X149766308Y-103419173D01*
X149623662Y-103762701D01*
X149623338Y-104134667D01*
X138735022Y-104134667D01*
X138865532Y-103939346D01*
X138951929Y-103505000D01*
X138865532Y-103070654D01*
X138619495Y-102702434D01*
X138251275Y-102456397D01*
X137816929Y-102370000D01*
X136243071Y-102370000D01*
X135808725Y-102456397D01*
X135440505Y-102702434D01*
X135194468Y-103070654D01*
X135108071Y-103505000D01*
X121360000Y-103505000D01*
X121360000Y-100965000D01*
X135108071Y-100965000D01*
X135194468Y-101399346D01*
X135440505Y-101767566D01*
X135808725Y-102013603D01*
X136243071Y-102100000D01*
X137816929Y-102100000D01*
X138251275Y-102013603D01*
X138619495Y-101767566D01*
X138647937Y-101725000D01*
X138684000Y-101725000D01*
X138974839Y-101667148D01*
X139221401Y-101502401D01*
X139331680Y-101392122D01*
X139377167Y-101392162D01*
X139720943Y-101250117D01*
X139772845Y-101198305D01*
X143494674Y-101198305D01*
X143781043Y-101891372D01*
X144310839Y-102422093D01*
X145003405Y-102709672D01*
X145753305Y-102710326D01*
X146446372Y-102423957D01*
X146977093Y-101894161D01*
X147237565Y-101266874D01*
X150685881Y-101266874D01*
X150887632Y-101677763D01*
X151228322Y-101965002D01*
X151653000Y-102100000D01*
X152403000Y-102100000D01*
X152403000Y-101092000D01*
X152657000Y-101092000D01*
X152657000Y-102100000D01*
X153407000Y-102100000D01*
X153831678Y-101965002D01*
X154172368Y-101677763D01*
X154374119Y-101266874D01*
X154247954Y-101092000D01*
X152657000Y-101092000D01*
X152403000Y-101092000D01*
X150812046Y-101092000D01*
X150685881Y-101266874D01*
X147237565Y-101266874D01*
X147264672Y-101201595D01*
X147265141Y-100663126D01*
X150685881Y-100663126D01*
X150812046Y-100838000D01*
X152403000Y-100838000D01*
X152403000Y-99830000D01*
X152657000Y-99830000D01*
X152657000Y-100838000D01*
X154247954Y-100838000D01*
X154374119Y-100663126D01*
X154172368Y-100252237D01*
X153831678Y-99964998D01*
X153407000Y-99830000D01*
X152657000Y-99830000D01*
X152403000Y-99830000D01*
X151653000Y-99830000D01*
X151228322Y-99964998D01*
X150887632Y-100252237D01*
X150685881Y-100663126D01*
X147265141Y-100663126D01*
X147265326Y-100451695D01*
X146978957Y-99758628D01*
X146449161Y-99227907D01*
X145756595Y-98940328D01*
X145006695Y-98939674D01*
X144313628Y-99226043D01*
X143782907Y-99755839D01*
X143495328Y-100448405D01*
X143494674Y-101198305D01*
X139772845Y-101198305D01*
X139984192Y-100987327D01*
X140126838Y-100643799D01*
X140127162Y-100271833D01*
X139985117Y-99928057D01*
X139722327Y-99664808D01*
X139378799Y-99522162D01*
X139006833Y-99521838D01*
X138663057Y-99663883D01*
X138399808Y-99926673D01*
X138370888Y-99996320D01*
X138251275Y-99916397D01*
X137816929Y-99830000D01*
X136243071Y-99830000D01*
X135808725Y-99916397D01*
X135440505Y-100162434D01*
X135194468Y-100530654D01*
X135108071Y-100965000D01*
X121360000Y-100965000D01*
X121360000Y-98425000D01*
X135108071Y-98425000D01*
X135194468Y-98859346D01*
X135440505Y-99227566D01*
X135808725Y-99473603D01*
X136243071Y-99560000D01*
X137816929Y-99560000D01*
X138251275Y-99473603D01*
X138619495Y-99227566D01*
X138865532Y-98859346D01*
X138951929Y-98425000D01*
X138865532Y-97990654D01*
X138619495Y-97622434D01*
X138251275Y-97376397D01*
X137816929Y-97290000D01*
X136243071Y-97290000D01*
X135808725Y-97376397D01*
X135440505Y-97622434D01*
X135194468Y-97990654D01*
X135108071Y-98425000D01*
X121360000Y-98425000D01*
X121360000Y-95885000D01*
X135108071Y-95885000D01*
X135194468Y-96319346D01*
X135440505Y-96687566D01*
X135808725Y-96933603D01*
X136243071Y-97020000D01*
X137816929Y-97020000D01*
X138251275Y-96933603D01*
X138619495Y-96687566D01*
X138862310Y-96324167D01*
X149051838Y-96324167D01*
X149193883Y-96667943D01*
X149299710Y-96773954D01*
X149194808Y-96878673D01*
X149052162Y-97222201D01*
X149051838Y-97594167D01*
X149193883Y-97937943D01*
X149456673Y-98201192D01*
X149800201Y-98343838D01*
X149847077Y-98343879D01*
X150465599Y-98962401D01*
X150712161Y-99127148D01*
X150898124Y-99164139D01*
X150940505Y-99227566D01*
X151308725Y-99473603D01*
X151743071Y-99560000D01*
X153316929Y-99560000D01*
X153751275Y-99473603D01*
X154119495Y-99227566D01*
X154365532Y-98859346D01*
X154451929Y-98425000D01*
X154365532Y-97990654D01*
X154119495Y-97622434D01*
X153751275Y-97376397D01*
X153316929Y-97290000D01*
X151743071Y-97290000D01*
X151308725Y-97376397D01*
X151141161Y-97488359D01*
X150922122Y-97269320D01*
X150922162Y-97223833D01*
X150780117Y-96880057D01*
X150674290Y-96774046D01*
X150779192Y-96669327D01*
X150789294Y-96645000D01*
X150912063Y-96645000D01*
X150940505Y-96687566D01*
X151308725Y-96933603D01*
X151743071Y-97020000D01*
X153316929Y-97020000D01*
X153751275Y-96933603D01*
X154119495Y-96687566D01*
X154365532Y-96319346D01*
X154451929Y-95885000D01*
X154365532Y-95450654D01*
X154119495Y-95082434D01*
X153751275Y-94836397D01*
X153316929Y-94750000D01*
X153022302Y-94750000D01*
X153067401Y-94704901D01*
X153217675Y-94480000D01*
X153316929Y-94480000D01*
X153751275Y-94393603D01*
X154119495Y-94147566D01*
X154365532Y-93779346D01*
X154451929Y-93345000D01*
X154365532Y-92910654D01*
X154119495Y-92542434D01*
X153751275Y-92296397D01*
X153316929Y-92210000D01*
X151743071Y-92210000D01*
X151308725Y-92296397D01*
X150940505Y-92542434D01*
X150694468Y-92910654D01*
X150608071Y-93345000D01*
X150694468Y-93779346D01*
X150710270Y-93802995D01*
X150664557Y-93821883D01*
X150401308Y-94084673D01*
X150258662Y-94428201D01*
X150258338Y-94800167D01*
X150392556Y-95125000D01*
X150241000Y-95125000D01*
X149950160Y-95182852D01*
X149918600Y-95203940D01*
X149801833Y-95203838D01*
X149458057Y-95345883D01*
X149194808Y-95608673D01*
X149052162Y-95952201D01*
X149051838Y-96324167D01*
X138862310Y-96324167D01*
X138865532Y-96319346D01*
X138951929Y-95885000D01*
X138865532Y-95450654D01*
X138619495Y-95082434D01*
X138251275Y-94836397D01*
X137816929Y-94750000D01*
X136243071Y-94750000D01*
X135808725Y-94836397D01*
X135440505Y-95082434D01*
X135194468Y-95450654D01*
X135108071Y-95885000D01*
X121360000Y-95885000D01*
X121360000Y-93345000D01*
X135108071Y-93345000D01*
X135194468Y-93779346D01*
X135440505Y-94147566D01*
X135808725Y-94393603D01*
X136243071Y-94480000D01*
X137816929Y-94480000D01*
X138251275Y-94393603D01*
X138619495Y-94147566D01*
X138865532Y-93779346D01*
X138951929Y-93345000D01*
X138865532Y-92910654D01*
X138619495Y-92542434D01*
X138251275Y-92296397D01*
X137816929Y-92210000D01*
X136243071Y-92210000D01*
X135808725Y-92296397D01*
X135440505Y-92542434D01*
X135194468Y-92910654D01*
X135108071Y-93345000D01*
X121360000Y-93345000D01*
X121360000Y-81999874D01*
X122094370Y-81999874D01*
X122646600Y-83336372D01*
X123668249Y-84359806D01*
X125003782Y-84914368D01*
X126449874Y-84915630D01*
X127786372Y-84363400D01*
X128809806Y-83341751D01*
X129364368Y-82006218D01*
X129364373Y-81999874D01*
X160194370Y-81999874D01*
X160746600Y-83336372D01*
X161768249Y-84359806D01*
X163103782Y-84914368D01*
X164549874Y-84915630D01*
X165886372Y-84363400D01*
X166909806Y-83341751D01*
X167464368Y-82006218D01*
X167465630Y-80560126D01*
X166913400Y-79223628D01*
X165891751Y-78200194D01*
X164556218Y-77645632D01*
X163110126Y-77644370D01*
X161773628Y-78196600D01*
X160750194Y-79218249D01*
X160195632Y-80553782D01*
X160194370Y-81999874D01*
X129364373Y-81999874D01*
X129365630Y-80560126D01*
X128813400Y-79223628D01*
X127791751Y-78200194D01*
X126456218Y-77645632D01*
X125010126Y-77644370D01*
X123673628Y-78196600D01*
X122650194Y-79218249D01*
X122095632Y-80553782D01*
X122094370Y-81999874D01*
X121360000Y-81999874D01*
X121360000Y-81349931D01*
X121705498Y-79612995D01*
X122649779Y-78199779D01*
X124062997Y-77255498D01*
X125799931Y-76910000D01*
X163760069Y-76910000D01*
X165497005Y-77255498D01*
X165497005Y-77255498D01*
G37*
X165497005Y-77255498D02*
X166910221Y-78199779D01*
X167854502Y-79612997D01*
X168200000Y-81349931D01*
X168200000Y-119310069D01*
X167854502Y-121047003D01*
X166910221Y-122460221D01*
X165497005Y-123404502D01*
X163760069Y-123750000D01*
X156718028Y-123750000D01*
X156834441Y-123675090D01*
X156979431Y-123462890D01*
X157030440Y-123211000D01*
X157030440Y-121711000D01*
X156995442Y-121525000D01*
X157471069Y-121525000D01*
X157529910Y-121616441D01*
X157742110Y-121761431D01*
X157994000Y-121812440D01*
X158744000Y-121812440D01*
X158979317Y-121768162D01*
X159195441Y-121629090D01*
X159340431Y-121416890D01*
X159391440Y-121165000D01*
X159391440Y-120365000D01*
X159347162Y-120129683D01*
X159327981Y-120099874D01*
X160194370Y-120099874D01*
X160746600Y-121436372D01*
X161768249Y-122459806D01*
X163103782Y-123014368D01*
X164549874Y-123015630D01*
X165886372Y-122463400D01*
X166909806Y-121441751D01*
X167464368Y-120106218D01*
X167465630Y-118660126D01*
X166913400Y-117323628D01*
X165891751Y-116300194D01*
X164556218Y-115745632D01*
X163110126Y-115744370D01*
X161773628Y-116296600D01*
X160750194Y-117318249D01*
X160195632Y-118653782D01*
X160194370Y-120099874D01*
X159327981Y-120099874D01*
X159280671Y-120026354D01*
X159282327Y-120024698D01*
X159379000Y-119791309D01*
X159379000Y-119550750D01*
X159220250Y-119392000D01*
X158496000Y-119392000D01*
X158496000Y-119412000D01*
X158242000Y-119412000D01*
X158242000Y-119392000D01*
X157517750Y-119392000D01*
X157359000Y-119550750D01*
X157359000Y-119791309D01*
X157447514Y-120005000D01*
X156476000Y-120005000D01*
X156185161Y-120062852D01*
X156111723Y-120111921D01*
X155806728Y-119806926D01*
X156077667Y-119807162D01*
X156421443Y-119665117D01*
X156684692Y-119402327D01*
X156827338Y-119058799D01*
X156827616Y-118738691D01*
X157359000Y-118738691D01*
X157359000Y-118979250D01*
X157517750Y-119138000D01*
X158242000Y-119138000D01*
X158242000Y-118388750D01*
X158496000Y-118388750D01*
X158496000Y-119138000D01*
X159220250Y-119138000D01*
X159379000Y-118979250D01*
X159379000Y-118738691D01*
X159282327Y-118505302D01*
X159103699Y-118326673D01*
X158870310Y-118230000D01*
X158654750Y-118230000D01*
X158496000Y-118388750D01*
X158242000Y-118388750D01*
X158083250Y-118230000D01*
X157867690Y-118230000D01*
X157634301Y-118326673D01*
X157455673Y-118505302D01*
X157359000Y-118738691D01*
X156827616Y-118738691D01*
X156827662Y-118686833D01*
X156696171Y-118368600D01*
X156742699Y-118349327D01*
X156921327Y-118170698D01*
X157018000Y-117937309D01*
X157018000Y-117346750D01*
X156859250Y-117188000D01*
X156210000Y-117188000D01*
X156210000Y-117208000D01*
X155956000Y-117208000D01*
X155956000Y-117188000D01*
X155936000Y-117188000D01*
X155936000Y-116934000D01*
X155956000Y-116934000D01*
X155956000Y-115834750D01*
X156210000Y-115834750D01*
X156210000Y-116934000D01*
X156859250Y-116934000D01*
X157018000Y-116775250D01*
X157018000Y-116184691D01*
X156921327Y-115951302D01*
X156742699Y-115772673D01*
X156509310Y-115676000D01*
X156368750Y-115676000D01*
X156210000Y-115834750D01*
X155956000Y-115834750D01*
X155797250Y-115676000D01*
X155656690Y-115676000D01*
X155439878Y-115765806D01*
X155364890Y-115714569D01*
X155113000Y-115663560D01*
X154513000Y-115663560D01*
X154277683Y-115707838D01*
X154178472Y-115771678D01*
X154094890Y-115714569D01*
X153843000Y-115663560D01*
X153243000Y-115663560D01*
X153007683Y-115707838D01*
X152908472Y-115771678D01*
X152824890Y-115714569D01*
X152573000Y-115663560D01*
X151973000Y-115663560D01*
X151737683Y-115707838D01*
X151638472Y-115771678D01*
X151554890Y-115714569D01*
X151303000Y-115663560D01*
X150703000Y-115663560D01*
X150467683Y-115707838D01*
X150368472Y-115771678D01*
X150284890Y-115714569D01*
X150033000Y-115663560D01*
X149433000Y-115663560D01*
X149197683Y-115707838D01*
X149098472Y-115771678D01*
X149014890Y-115714569D01*
X148763000Y-115663560D01*
X148163000Y-115663560D01*
X147927683Y-115707838D01*
X147828472Y-115771678D01*
X147744890Y-115714569D01*
X147493000Y-115663560D01*
X146893000Y-115663560D01*
X146657683Y-115707838D01*
X146441559Y-115846910D01*
X146296569Y-116059110D01*
X146245560Y-116311000D01*
X146245560Y-117811000D01*
X146289838Y-118046317D01*
X146428910Y-118262441D01*
X146641110Y-118407431D01*
X146893000Y-118458440D01*
X147493000Y-118458440D01*
X147728317Y-118414162D01*
X147827528Y-118350322D01*
X147911110Y-118407431D01*
X148011701Y-118427801D01*
X147934057Y-118459883D01*
X147670808Y-118722673D01*
X147528162Y-119066201D01*
X147527890Y-119378998D01*
X145726800Y-119378998D01*
X145540000Y-119192198D01*
X145540000Y-119131844D01*
X145606441Y-119089090D01*
X145751431Y-118876890D01*
X145802440Y-118625000D01*
X145802440Y-117825000D01*
X145758162Y-117589683D01*
X145691671Y-117486354D01*
X145693327Y-117484698D01*
X145790000Y-117251309D01*
X145790000Y-117010750D01*
X145631250Y-116852000D01*
X144907000Y-116852000D01*
X144907000Y-116872000D01*
X144653000Y-116872000D01*
X144653000Y-116852000D01*
X143928750Y-116852000D01*
X143770000Y-117010750D01*
X143770000Y-117251309D01*
X143866673Y-117484698D01*
X143868043Y-117486068D01*
X143808569Y-117573110D01*
X143757560Y-117825000D01*
X143757560Y-118044758D01*
X143400401Y-117687599D01*
X143191237Y-117547841D01*
X143151671Y-117486354D01*
X143153327Y-117484698D01*
X143250000Y-117251309D01*
X143250000Y-117010750D01*
X143091250Y-116852000D01*
X142367000Y-116852000D01*
X142367000Y-116872000D01*
X142113000Y-116872000D01*
X142113000Y-116852000D01*
X141388750Y-116852000D01*
X141230000Y-117010750D01*
X141230000Y-117251309D01*
X141326673Y-117484698D01*
X141328043Y-117486068D01*
X141268569Y-117573110D01*
X141217560Y-117825000D01*
X141217560Y-117917758D01*
X140987401Y-117687599D01*
X140740839Y-117522852D01*
X140619645Y-117498745D01*
X140611671Y-117486354D01*
X140613327Y-117484698D01*
X140710000Y-117251309D01*
X140710000Y-117010750D01*
X140551250Y-116852000D01*
X139827000Y-116852000D01*
X139827000Y-116872000D01*
X139573000Y-116872000D01*
X139573000Y-116852000D01*
X138848750Y-116852000D01*
X138690000Y-117010750D01*
X138690000Y-117251309D01*
X138786673Y-117484698D01*
X138788043Y-117486068D01*
X138728569Y-117573110D01*
X138677560Y-117825000D01*
X138677560Y-118625000D01*
X138721838Y-118860317D01*
X138860910Y-119076441D01*
X138901217Y-119103981D01*
X137668779Y-120336419D01*
X137669018Y-120062670D01*
X137477599Y-119599400D01*
X137123465Y-119244647D01*
X136660529Y-119052419D01*
X136159270Y-119051982D01*
X135849572Y-119179946D01*
X135768498Y-119098873D01*
X135535109Y-119002200D01*
X135467550Y-119002200D01*
X135308800Y-119160950D01*
X135308800Y-119319267D01*
X135222890Y-119185759D01*
X135010690Y-119040769D01*
X134983015Y-119035165D01*
X134950050Y-119002200D01*
X134882491Y-119002200D01*
X134862047Y-119010668D01*
X134758800Y-118989760D01*
X134668800Y-118989760D01*
X134668800Y-118621530D01*
X134777192Y-118513327D01*
X134919838Y-118169799D01*
X134920162Y-117797833D01*
X134778117Y-117454057D01*
X134515327Y-117190808D01*
X134171799Y-117048162D01*
X133799833Y-117047838D01*
X133456057Y-117189883D01*
X133192808Y-117452673D01*
X133149883Y-117556046D01*
X132910833Y-117555838D01*
X132567057Y-117697883D01*
X132303808Y-117960673D01*
X132161162Y-118304201D01*
X132160838Y-118676167D01*
X132298952Y-119010429D01*
X132173483Y-119034038D01*
X131957359Y-119173110D01*
X131955994Y-119175107D01*
X131660529Y-119052419D01*
X131159270Y-119051982D01*
X130696000Y-119243401D01*
X130341247Y-119597535D01*
X130149019Y-120060471D01*
X130148582Y-120561730D01*
X130340001Y-121025000D01*
X130694135Y-121379753D01*
X131157071Y-121571981D01*
X131658330Y-121572418D01*
X131859997Y-121489091D01*
X131892761Y-121653807D01*
X131886072Y-121658112D01*
X131860690Y-121640769D01*
X131608800Y-121589760D01*
X130333800Y-121589760D01*
X130267998Y-121602141D01*
X130054564Y-121601955D01*
X129536142Y-121816163D01*
X129139157Y-122212456D01*
X128924045Y-122730503D01*
X128923555Y-123291436D01*
X129113030Y-123750000D01*
X125799931Y-123750000D01*
X124062997Y-123404502D01*
X122649779Y-122460221D01*
X121705498Y-121047005D01*
X121517102Y-120099874D01*
X122094370Y-120099874D01*
X122646600Y-121436372D01*
X123668249Y-122459806D01*
X125003782Y-123014368D01*
X126449874Y-123015630D01*
X127786372Y-122463400D01*
X128809806Y-121441751D01*
X129364368Y-120106218D01*
X129365630Y-118660126D01*
X128813400Y-117323628D01*
X127791751Y-116300194D01*
X127547305Y-116198691D01*
X138690000Y-116198691D01*
X138690000Y-116439250D01*
X138848750Y-116598000D01*
X139573000Y-116598000D01*
X139573000Y-115848750D01*
X139827000Y-115848750D01*
X139827000Y-116598000D01*
X140551250Y-116598000D01*
X140710000Y-116439250D01*
X140710000Y-116198691D01*
X141230000Y-116198691D01*
X141230000Y-116439250D01*
X141388750Y-116598000D01*
X142113000Y-116598000D01*
X142113000Y-115848750D01*
X142367000Y-115848750D01*
X142367000Y-116598000D01*
X143091250Y-116598000D01*
X143250000Y-116439250D01*
X143250000Y-116198691D01*
X143770000Y-116198691D01*
X143770000Y-116439250D01*
X143928750Y-116598000D01*
X144653000Y-116598000D01*
X144653000Y-115848750D01*
X144907000Y-115848750D01*
X144907000Y-116598000D01*
X145631250Y-116598000D01*
X145790000Y-116439250D01*
X145790000Y-116198691D01*
X145693327Y-115965302D01*
X145514699Y-115786673D01*
X145281310Y-115690000D01*
X145065750Y-115690000D01*
X144907000Y-115848750D01*
X144653000Y-115848750D01*
X144494250Y-115690000D01*
X144278690Y-115690000D01*
X144045301Y-115786673D01*
X143866673Y-115965302D01*
X143770000Y-116198691D01*
X143250000Y-116198691D01*
X143153327Y-115965302D01*
X142974699Y-115786673D01*
X142741310Y-115690000D01*
X142525750Y-115690000D01*
X142367000Y-115848750D01*
X142113000Y-115848750D01*
X141954250Y-115690000D01*
X141738690Y-115690000D01*
X141505301Y-115786673D01*
X141326673Y-115965302D01*
X141230000Y-116198691D01*
X140710000Y-116198691D01*
X140613327Y-115965302D01*
X140434699Y-115786673D01*
X140201310Y-115690000D01*
X139985750Y-115690000D01*
X139827000Y-115848750D01*
X139573000Y-115848750D01*
X139414250Y-115690000D01*
X139198690Y-115690000D01*
X138965301Y-115786673D01*
X138786673Y-115965302D01*
X138690000Y-116198691D01*
X127547305Y-116198691D01*
X126456218Y-115745632D01*
X125010126Y-115744370D01*
X123673628Y-116296600D01*
X122650194Y-117318249D01*
X122095632Y-118653782D01*
X122094370Y-120099874D01*
X121517102Y-120099874D01*
X121360000Y-119310069D01*
X121360000Y-106346874D01*
X135185881Y-106346874D01*
X135387632Y-106757763D01*
X135728322Y-107045002D01*
X136153000Y-107180000D01*
X136903000Y-107180000D01*
X136903000Y-106172000D01*
X137157000Y-106172000D01*
X137157000Y-107180000D01*
X137907000Y-107180000D01*
X138331678Y-107045002D01*
X138672368Y-106757763D01*
X138874119Y-106346874D01*
X138747954Y-106172000D01*
X137157000Y-106172000D01*
X136903000Y-106172000D01*
X135312046Y-106172000D01*
X135185881Y-106346874D01*
X121360000Y-106346874D01*
X121360000Y-106045000D01*
X150608071Y-106045000D01*
X150694468Y-106479346D01*
X150940505Y-106847566D01*
X151065406Y-106931022D01*
X150957162Y-107191701D01*
X150956838Y-107563667D01*
X151098883Y-107907443D01*
X151361673Y-108170692D01*
X151705201Y-108313338D01*
X152077167Y-108313662D01*
X152420943Y-108171617D01*
X152684192Y-107908827D01*
X152826838Y-107565299D01*
X152826879Y-107518423D01*
X153067401Y-107277901D01*
X153132816Y-107180000D01*
X153316929Y-107180000D01*
X153751275Y-107093603D01*
X154119495Y-106847566D01*
X154365532Y-106479346D01*
X154451929Y-106045000D01*
X154365532Y-105610654D01*
X154119495Y-105242434D01*
X153751275Y-104996397D01*
X153316929Y-104910000D01*
X151743071Y-104910000D01*
X151308725Y-104996397D01*
X150940505Y-105242434D01*
X150694468Y-105610654D01*
X150608071Y-106045000D01*
X121360000Y-106045000D01*
X121360000Y-105743126D01*
X135185881Y-105743126D01*
X135312046Y-105918000D01*
X136903000Y-105918000D01*
X136903000Y-104910000D01*
X137157000Y-104910000D01*
X137157000Y-105918000D01*
X138747954Y-105918000D01*
X138874119Y-105743126D01*
X138672368Y-105332237D01*
X138331678Y-105044998D01*
X137907000Y-104910000D01*
X137157000Y-104910000D01*
X136903000Y-104910000D01*
X136153000Y-104910000D01*
X135728322Y-105044998D01*
X135387632Y-105332237D01*
X135185881Y-105743126D01*
X121360000Y-105743126D01*
X121360000Y-103505000D01*
X135108071Y-103505000D01*
X135194468Y-103939346D01*
X135440505Y-104307566D01*
X135808725Y-104553603D01*
X136243071Y-104640000D01*
X137816929Y-104640000D01*
X138251275Y-104553603D01*
X138619495Y-104307566D01*
X138735022Y-104134667D01*
X149623338Y-104134667D01*
X149765383Y-104478443D01*
X150028173Y-104741692D01*
X150371701Y-104884338D01*
X150743667Y-104884662D01*
X151087443Y-104742617D01*
X151289593Y-104540819D01*
X151308725Y-104553603D01*
X151743071Y-104640000D01*
X153316929Y-104640000D01*
X153751275Y-104553603D01*
X154119495Y-104307566D01*
X154365532Y-103939346D01*
X154451929Y-103505000D01*
X154365532Y-103070654D01*
X154119495Y-102702434D01*
X153751275Y-102456397D01*
X153316929Y-102370000D01*
X151743071Y-102370000D01*
X151308725Y-102456397D01*
X150940505Y-102702434D01*
X150898124Y-102765861D01*
X150712161Y-102802852D01*
X150465599Y-102967599D01*
X150418820Y-103014378D01*
X150373333Y-103014338D01*
X150029557Y-103156383D01*
X149766308Y-103419173D01*
X149623662Y-103762701D01*
X149623338Y-104134667D01*
X138735022Y-104134667D01*
X138865532Y-103939346D01*
X138951929Y-103505000D01*
X138865532Y-103070654D01*
X138619495Y-102702434D01*
X138251275Y-102456397D01*
X137816929Y-102370000D01*
X136243071Y-102370000D01*
X135808725Y-102456397D01*
X135440505Y-102702434D01*
X135194468Y-103070654D01*
X135108071Y-103505000D01*
X121360000Y-103505000D01*
X121360000Y-100965000D01*
X135108071Y-100965000D01*
X135194468Y-101399346D01*
X135440505Y-101767566D01*
X135808725Y-102013603D01*
X136243071Y-102100000D01*
X137816929Y-102100000D01*
X138251275Y-102013603D01*
X138619495Y-101767566D01*
X138647937Y-101725000D01*
X138684000Y-101725000D01*
X138974839Y-101667148D01*
X139221401Y-101502401D01*
X139331680Y-101392122D01*
X139377167Y-101392162D01*
X139720943Y-101250117D01*
X139772845Y-101198305D01*
X143494674Y-101198305D01*
X143781043Y-101891372D01*
X144310839Y-102422093D01*
X145003405Y-102709672D01*
X145753305Y-102710326D01*
X146446372Y-102423957D01*
X146977093Y-101894161D01*
X147237565Y-101266874D01*
X150685881Y-101266874D01*
X150887632Y-101677763D01*
X151228322Y-101965002D01*
X151653000Y-102100000D01*
X152403000Y-102100000D01*
X152403000Y-101092000D01*
X152657000Y-101092000D01*
X152657000Y-102100000D01*
X153407000Y-102100000D01*
X153831678Y-101965002D01*
X154172368Y-101677763D01*
X154374119Y-101266874D01*
X154247954Y-101092000D01*
X152657000Y-101092000D01*
X152403000Y-101092000D01*
X150812046Y-101092000D01*
X150685881Y-101266874D01*
X147237565Y-101266874D01*
X147264672Y-101201595D01*
X147265141Y-100663126D01*
X150685881Y-100663126D01*
X150812046Y-100838000D01*
X152403000Y-100838000D01*
X152403000Y-99830000D01*
X152657000Y-99830000D01*
X152657000Y-100838000D01*
X154247954Y-100838000D01*
X154374119Y-100663126D01*
X154172368Y-100252237D01*
X153831678Y-99964998D01*
X153407000Y-99830000D01*
X152657000Y-99830000D01*
X152403000Y-99830000D01*
X151653000Y-99830000D01*
X151228322Y-99964998D01*
X150887632Y-100252237D01*
X150685881Y-100663126D01*
X147265141Y-100663126D01*
X147265326Y-100451695D01*
X146978957Y-99758628D01*
X146449161Y-99227907D01*
X145756595Y-98940328D01*
X145006695Y-98939674D01*
X144313628Y-99226043D01*
X143782907Y-99755839D01*
X143495328Y-100448405D01*
X143494674Y-101198305D01*
X139772845Y-101198305D01*
X139984192Y-100987327D01*
X140126838Y-100643799D01*
X140127162Y-100271833D01*
X139985117Y-99928057D01*
X139722327Y-99664808D01*
X139378799Y-99522162D01*
X139006833Y-99521838D01*
X138663057Y-99663883D01*
X138399808Y-99926673D01*
X138370888Y-99996320D01*
X138251275Y-99916397D01*
X137816929Y-99830000D01*
X136243071Y-99830000D01*
X135808725Y-99916397D01*
X135440505Y-100162434D01*
X135194468Y-100530654D01*
X135108071Y-100965000D01*
X121360000Y-100965000D01*
X121360000Y-98425000D01*
X135108071Y-98425000D01*
X135194468Y-98859346D01*
X135440505Y-99227566D01*
X135808725Y-99473603D01*
X136243071Y-99560000D01*
X137816929Y-99560000D01*
X138251275Y-99473603D01*
X138619495Y-99227566D01*
X138865532Y-98859346D01*
X138951929Y-98425000D01*
X138865532Y-97990654D01*
X138619495Y-97622434D01*
X138251275Y-97376397D01*
X137816929Y-97290000D01*
X136243071Y-97290000D01*
X135808725Y-97376397D01*
X135440505Y-97622434D01*
X135194468Y-97990654D01*
X135108071Y-98425000D01*
X121360000Y-98425000D01*
X121360000Y-95885000D01*
X135108071Y-95885000D01*
X135194468Y-96319346D01*
X135440505Y-96687566D01*
X135808725Y-96933603D01*
X136243071Y-97020000D01*
X137816929Y-97020000D01*
X138251275Y-96933603D01*
X138619495Y-96687566D01*
X138862310Y-96324167D01*
X149051838Y-96324167D01*
X149193883Y-96667943D01*
X149299710Y-96773954D01*
X149194808Y-96878673D01*
X149052162Y-97222201D01*
X149051838Y-97594167D01*
X149193883Y-97937943D01*
X149456673Y-98201192D01*
X149800201Y-98343838D01*
X149847077Y-98343879D01*
X150465599Y-98962401D01*
X150712161Y-99127148D01*
X150898124Y-99164139D01*
X150940505Y-99227566D01*
X151308725Y-99473603D01*
X151743071Y-99560000D01*
X153316929Y-99560000D01*
X153751275Y-99473603D01*
X154119495Y-99227566D01*
X154365532Y-98859346D01*
X154451929Y-98425000D01*
X154365532Y-97990654D01*
X154119495Y-97622434D01*
X153751275Y-97376397D01*
X153316929Y-97290000D01*
X151743071Y-97290000D01*
X151308725Y-97376397D01*
X151141161Y-97488359D01*
X150922122Y-97269320D01*
X150922162Y-97223833D01*
X150780117Y-96880057D01*
X150674290Y-96774046D01*
X150779192Y-96669327D01*
X150789294Y-96645000D01*
X150912063Y-96645000D01*
X150940505Y-96687566D01*
X151308725Y-96933603D01*
X151743071Y-97020000D01*
X153316929Y-97020000D01*
X153751275Y-96933603D01*
X154119495Y-96687566D01*
X154365532Y-96319346D01*
X154451929Y-95885000D01*
X154365532Y-95450654D01*
X154119495Y-95082434D01*
X153751275Y-94836397D01*
X153316929Y-94750000D01*
X153022302Y-94750000D01*
X153067401Y-94704901D01*
X153217675Y-94480000D01*
X153316929Y-94480000D01*
X153751275Y-94393603D01*
X154119495Y-94147566D01*
X154365532Y-93779346D01*
X154451929Y-93345000D01*
X154365532Y-92910654D01*
X154119495Y-92542434D01*
X153751275Y-92296397D01*
X153316929Y-92210000D01*
X151743071Y-92210000D01*
X151308725Y-92296397D01*
X150940505Y-92542434D01*
X150694468Y-92910654D01*
X150608071Y-93345000D01*
X150694468Y-93779346D01*
X150710270Y-93802995D01*
X150664557Y-93821883D01*
X150401308Y-94084673D01*
X150258662Y-94428201D01*
X150258338Y-94800167D01*
X150392556Y-95125000D01*
X150241000Y-95125000D01*
X149950160Y-95182852D01*
X149918600Y-95203940D01*
X149801833Y-95203838D01*
X149458057Y-95345883D01*
X149194808Y-95608673D01*
X149052162Y-95952201D01*
X149051838Y-96324167D01*
X138862310Y-96324167D01*
X138865532Y-96319346D01*
X138951929Y-95885000D01*
X138865532Y-95450654D01*
X138619495Y-95082434D01*
X138251275Y-94836397D01*
X137816929Y-94750000D01*
X136243071Y-94750000D01*
X135808725Y-94836397D01*
X135440505Y-95082434D01*
X135194468Y-95450654D01*
X135108071Y-95885000D01*
X121360000Y-95885000D01*
X121360000Y-93345000D01*
X135108071Y-93345000D01*
X135194468Y-93779346D01*
X135440505Y-94147566D01*
X135808725Y-94393603D01*
X136243071Y-94480000D01*
X137816929Y-94480000D01*
X138251275Y-94393603D01*
X138619495Y-94147566D01*
X138865532Y-93779346D01*
X138951929Y-93345000D01*
X138865532Y-92910654D01*
X138619495Y-92542434D01*
X138251275Y-92296397D01*
X137816929Y-92210000D01*
X136243071Y-92210000D01*
X135808725Y-92296397D01*
X135440505Y-92542434D01*
X135194468Y-92910654D01*
X135108071Y-93345000D01*
X121360000Y-93345000D01*
X121360000Y-81999874D01*
X122094370Y-81999874D01*
X122646600Y-83336372D01*
X123668249Y-84359806D01*
X125003782Y-84914368D01*
X126449874Y-84915630D01*
X127786372Y-84363400D01*
X128809806Y-83341751D01*
X129364368Y-82006218D01*
X129364373Y-81999874D01*
X160194370Y-81999874D01*
X160746600Y-83336372D01*
X161768249Y-84359806D01*
X163103782Y-84914368D01*
X164549874Y-84915630D01*
X165886372Y-84363400D01*
X166909806Y-83341751D01*
X167464368Y-82006218D01*
X167465630Y-80560126D01*
X166913400Y-79223628D01*
X165891751Y-78200194D01*
X164556218Y-77645632D01*
X163110126Y-77644370D01*
X161773628Y-78196600D01*
X160750194Y-79218249D01*
X160195632Y-80553782D01*
X160194370Y-81999874D01*
X129364373Y-81999874D01*
X129365630Y-80560126D01*
X128813400Y-79223628D01*
X127791751Y-78200194D01*
X126456218Y-77645632D01*
X125010126Y-77644370D01*
X123673628Y-78196600D01*
X122650194Y-79218249D01*
X122095632Y-80553782D01*
X122094370Y-81999874D01*
X121360000Y-81999874D01*
X121360000Y-81349931D01*
X121705498Y-79612995D01*
X122649779Y-78199779D01*
X124062997Y-77255498D01*
X125799931Y-76910000D01*
X163760069Y-76910000D01*
X165497005Y-77255498D01*
G36*
X139962560Y-120264000D02*
X139962560Y-120914000D01*
X139988919Y-121054086D01*
X139975000Y-121087690D01*
X139975000Y-121253250D01*
X140133750Y-121412000D01*
X140214051Y-121412000D01*
X140358110Y-121510431D01*
X140495120Y-121538176D01*
X140374683Y-121560838D01*
X140211257Y-121666000D01*
X140133750Y-121666000D01*
X139975000Y-121824750D01*
X139975000Y-121990310D01*
X139990268Y-122027171D01*
X139962560Y-122164000D01*
X139962560Y-122814000D01*
X140006838Y-123049317D01*
X140145910Y-123265441D01*
X140358110Y-123410431D01*
X140610000Y-123461440D01*
X141670000Y-123461440D01*
X141905317Y-123417162D01*
X142121441Y-123278090D01*
X142155366Y-123228439D01*
X142303180Y-123199037D01*
X142345910Y-123265441D01*
X142558110Y-123410431D01*
X142810000Y-123461440D01*
X143870000Y-123461440D01*
X144105317Y-123417162D01*
X144321441Y-123278090D01*
X144466431Y-123065890D01*
X144517440Y-122814000D01*
X144517440Y-122164000D01*
X144473162Y-121928683D01*
X144334090Y-121712559D01*
X144121890Y-121567569D01*
X143984880Y-121539824D01*
X144105317Y-121517162D01*
X144321441Y-121378090D01*
X144341317Y-121349000D01*
X146371804Y-121349000D01*
X146296569Y-121459110D01*
X146245560Y-121711000D01*
X146245560Y-123211000D01*
X146289838Y-123446317D01*
X146428910Y-123662441D01*
X146557057Y-123750000D01*
X138704164Y-123750000D01*
X138893555Y-123293897D01*
X138894045Y-122732964D01*
X138679837Y-122214542D01*
X138310371Y-121844431D01*
X139980781Y-120174021D01*
X139962560Y-120264000D01*
X139962560Y-120264000D01*
G37*
X139962560Y-120264000D02*
X139962560Y-120914000D01*
X139988919Y-121054086D01*
X139975000Y-121087690D01*
X139975000Y-121253250D01*
X140133750Y-121412000D01*
X140214051Y-121412000D01*
X140358110Y-121510431D01*
X140495120Y-121538176D01*
X140374683Y-121560838D01*
X140211257Y-121666000D01*
X140133750Y-121666000D01*
X139975000Y-121824750D01*
X139975000Y-121990310D01*
X139990268Y-122027171D01*
X139962560Y-122164000D01*
X139962560Y-122814000D01*
X140006838Y-123049317D01*
X140145910Y-123265441D01*
X140358110Y-123410431D01*
X140610000Y-123461440D01*
X141670000Y-123461440D01*
X141905317Y-123417162D01*
X142121441Y-123278090D01*
X142155366Y-123228439D01*
X142303180Y-123199037D01*
X142345910Y-123265441D01*
X142558110Y-123410431D01*
X142810000Y-123461440D01*
X143870000Y-123461440D01*
X144105317Y-123417162D01*
X144321441Y-123278090D01*
X144466431Y-123065890D01*
X144517440Y-122814000D01*
X144517440Y-122164000D01*
X144473162Y-121928683D01*
X144334090Y-121712559D01*
X144121890Y-121567569D01*
X143984880Y-121539824D01*
X144105317Y-121517162D01*
X144321441Y-121378090D01*
X144341317Y-121349000D01*
X146371804Y-121349000D01*
X146296569Y-121459110D01*
X146245560Y-121711000D01*
X146245560Y-123211000D01*
X146289838Y-123446317D01*
X146428910Y-123662441D01*
X146557057Y-123750000D01*
X138704164Y-123750000D01*
X138893555Y-123293897D01*
X138894045Y-122732964D01*
X138679837Y-122214542D01*
X138310371Y-121844431D01*
X139980781Y-120174021D01*
X139962560Y-120264000D01*
M02*
